<svg xmlns="http://www.w3.org/2000/svg" width="16" height="19" viewBox="0 0 16 19"><style>.a{fill:#808080;}</style><rect x="1.6" y="10" width="9.6" height="0.4" class="a"/><rect x="1.6" y="9.1" width="1.9" height="0.4" class="a"/><rect x="4.1" y="9.1" width="1.9" height="0.4" class="a"/><path d="M10.3 11.6c-0.6 0-1 0.4-1.1 0.9 -0.1-0.5-0.6-0.9-1.1-0.9 -0.6 0-1.2 0.5-1.2 1.2 0 0.6 0.5 1.2 1.2 1.2 0.6 0 1-0.4 1.1-0.9 0.1 0.5 0.6 0.9 1.1 0.9 0.6 0 1.2-0.5 1.2-1.2C11.4 12.1 10.9 11.6 10.3 11.6zM8 13.5c-0.4 0-0.8-0.3-0.8-0.8 0-0.4 0.3-0.8 0.8-0.8 0.4 0 0.8 0.3 0.8 0.8C8.8 13.1 8.4 13.5 8 13.5zM10.3 13.5c-0.4 0-0.8-0.3-0.8-0.8 0-0.4 0.3-0.8 0.8-0.8s0.8 0.3 0.8 0.8C11 13.1 10.7 13.5 10.3 13.5z" class="a"/><path d="M3.5 7.5H0.8v7.3h11.3v-1.5l1.6 0.3 1.5-7.1L4.2 4.2 3.5 7.5zM12.1 7.7l2.4 0.5L14.3 8.9l-2.2-0.5V7.7zM7.9 7.5L4.1 6.7 4.2 6l7.3 1.6H7.9zM4 7.1l2 0.4H3.9L4 7.1zM11.7 14.4H1.2V7.9h10.5V14.4zM13.4 13.2l-1.3-0.3v-1.1L13.2 12l0.1-0.4 -1.2-0.3V8.8l2.1 0.5L13.4 13.2zM14.7 6.9l-0.2 0.9L4.3 5.6l0.2-0.9L14.7 6.9z" class="a"/></svg>
