<svg xmlns="http://www.w3.org/2000/svg" width="16" height="19" viewBox="0 0 16 19"><style>.a{fill:#808080;}</style><path d="M15.7 15.8h-1.2V10.9v-1c0-0.9-0.7-1.6-1.6-1.6h-4V6C8.9 5.7 8.6 5.4 8.3 5.4l0 0V4.6c0-0.1-0.1-0.3-0.3-0.3S7.7 4.5 7.7 4.6v0.8l0 0C7.4 5.4 7.1 5.7 7.1 6v2.3H2.9C2 8.3 1.3 9 1.3 9.9v5.9h-1C0.1 15.8 0 15.9 0 16.1 0 16.2 0.1 16.4 0.3 16.4h0.1l0.1 0.5c0.2 0.3 0.6 0.6 0.9 0.6h13.1c0.4 0 0.8-0.3 0.9-0.7l0.1-0.5h0.1c0.1 0 0.3-0.1 0.3-0.3C16 15.9 15.9 15.8 15.7 15.8zM7.6 6c0 0 0-0.1 0.1-0.1h0.6c0 0 0.1 0 0.1 0.1v2.3H7.6V6zM2.9 8.8h10c0.6 0 1.1 0.5 1.1 1.1v0.8c-0.5 0.1-0.7 0.3-1 0.5S12.5 11.6 12.1 11.6C11.7 11.6 11.5 11.4 11.2 11.2S10.6 10.7 10 10.7 9.1 11 8.8 11.2 8.3 11.6 7.9 11.6 7.3 11.4 7 11.2s-0.6-0.5-1.2-0.5c-0.6 0-0.9 0.3-1.2 0.5 -0.2 0.1-0.3 0.2-0.5 0.3 -0.1 0-0.2 0.1-0.2 0.2v1.7c0 0.1-0.1 0.3-0.3 0.3 -0.1 0-0.3-0.1-0.3-0.3v-1.7c0-0.1-0.1-0.2-0.2-0.2 -0.2-0.1-0.3-0.2-0.5-0.3 -0.2-0.2-0.5-0.4-1-0.5V9.9C1.8 9.3 2.3 8.8 2.9 8.8zM1.8 11.2c0.3 0.1 0.4 0.2 0.6 0.4C2.5 11.7 2.7 11.8 2.9 11.9v1.6c0 0.4 0.3 0.8 0.8 0.8 0.4 0 0.8-0.3 0.8-0.8v-1.6C4.7 11.8 4.8 11.7 5 11.6 5.3 11.4 5.5 11.2 5.9 11.2s0.6 0.2 0.9 0.4c0.3 0.2 0.6 0.5 1.2 0.5 0.6 0 0.9-0.3 1.2-0.5C9.5 11.4 9.7 11.2 10.1 11.2c0.4 0 0.6 0.2 0.9 0.4 0.3 0.2 0.6 0.5 1.2 0.5 0.6 0 0.9-0.3 1.2-0.5C13.6 11.4 13.8 11.3 14 11.2v4.6H1.8V11.2zM15 16.7c0 0.2-0.2 0.3-0.4 0.3H1.4C1.2 17 1 16.9 1 16.7l-0.1-0.4H15V16.7z" class="a"/><path d="M7 4.8c0.1 0 0.1 0 0.2-0.1 0.1-0.1 0.1-0.3 0-0.4C7 4.1 6.9 3.9 6.9 3.6 6.9 3 7.3 2.4 8 2c0.7 0.4 1.1 1 1.1 1.6 0 0.3-0.1 0.5-0.3 0.7C8.7 4.4 8.7 4.6 8.9 4.7 9.1 4.8 9.2 4.8 9.3 4.7 9.6 4.4 9.7 4 9.7 3.6c0-0.8-0.6-1.7-1.5-2.1 -0.1 0-0.1 0-0.2 0C7 1.9 6.4 2.8 6.4 3.6c0 0.4 0.1 0.8 0.4 1.1C6.8 4.7 6.9 4.8 7 4.8z" class="a"/></svg>
