<svg xmlns="http://www.w3.org/2000/svg" width="16" height="19" viewBox="0 0 16 19"><path d="M16 6.5c0-1.7-1.4-3.1-3.1-3.1 -1.6 0-2.9 1.2-3.1 2.8H1.1C0.5 6.3 0 6.7 0 7.3v7.2c0 0.6 0.5 1.1 1.1 1.1h11c0.6 0 1.1-0.5 1.1-1.1V9.6C14.7 9.5 16 8.2 16 6.5zM9.8 6.7c0 0.7 0.3 1.2 0.7 1.7L7.1 11.4c-0.3 0.2-0.7 0.2-1 0L0.8 6.8c0.1 0 0.2-0.1 0.3-0.1H9.8zM12.1 15.2H1.1c-0.3 0-0.6-0.3-0.6-0.6V7.3c0-0.1 0-0.2 0-0.2l4.3 3.8 -2.4 2.3c-0.1 0.1-0.1 0.2 0 0.3 0 0 0.1 0.1 0.2 0.1 0.1 0 0.1 0 0.1-0.1l2.4-2.3c0 0 0 0 0 0l0.7 0.6C6 11.9 6.3 12 6.6 12c0.3 0 0.6-0.1 0.8-0.3l0.7-0.6c0 0 0 0 0 0l2.4 2.3c0 0 0.1 0.1 0.1 0.1 0.1 0 0.1 0 0.2-0.1 0.1-0.1 0.1-0.2 0-0.3l-2.4-2.3 2.4-2.1c0.5 0.5 1.2 0.8 1.9 0.8v5C12.7 14.9 12.4 15.2 12.1 15.2zM13 9.2c0 0-0.1 0-0.1 0s-0.1 0-0.1 0c-0.7 0-1.4-0.3-1.8-0.8 0 0 0 0 0-0.1 0 0 0 0 0 0 -0.4-0.5-0.7-1.1-0.7-1.7 0-1.5 1.2-2.7 2.7-2.7 1.5 0 2.7 1.2 2.7 2.7C15.6 8 14.4 9.1 13 9.2z"/><path d="M14.1 5.4l-1.6 1.9 -0.7-0.9c-0.1-0.1-0.2-0.1-0.3 0 -0.1 0.1-0.1 0.2 0 0.3l0.9 1.1c0 0 0.1 0 0.1 0 0.1 0 0.1 0 0.2-0.1l1.8-2.1c0.1-0.1 0.1-0.2 0-0.3C14.3 5.3 14.2 5.3 14.1 5.4z"/></svg>