<svg xmlns="http://www.w3.org/2000/svg" width="16" height="19" viewBox="0 0 16 19"><style>.a{fill:#808080;}</style><path d="M13 12.6c-0.1 0-0.1 0-0.2-0.1l-3-2.8c-0.1-0.1-0.1-0.2 0-0.3 0.1-0.1 0.3-0.1 0.4 0l3 2.8c0.1 0.1 0.1 0.3 0 0.4C13.1 12.6 13 12.6 13 12.6z" class="a"/><path d="M3 12.6c-0.1 0-0.1 0-0.2-0.1 -0.1-0.1-0.1-0.3 0-0.4l3-2.8c0.1 0 0.3 0 0.4 0.1 0.1 0.1 0.1 0.2 0 0.3l-3 2.8C3.2 12.6 3.1 12.6 3 12.6z" class="a"/><path d="M14.7 15.2H1.3C0.6 15.2 0 14.6 0 13.9V5.1c0-0.7 0.6-1.3 1.3-1.3h13.4c0.7 0 1.3 0.6 1.3 1.3v8.8C16 14.6 15.4 15.2 14.7 15.2zM1.3 4.3c-0.4 0-0.8 0.3-0.8 0.8v8.8c0 0.4 0.3 0.8 0.8 0.8h13.4c0.4 0 0.8-0.3 0.8-0.8V5.1c0-0.4-0.3-0.8-0.8-0.8H1.3z" class="a"/><path d="M8 10.8c-0.3 0-0.7-0.1-0.9-0.3L0.4 4.7c-0.1-0.1-0.1-0.3 0-0.4 0.1-0.1 0.3-0.1 0.4 0l6.6 5.8c0.3 0.3 0.9 0.3 1.2 0L15.2 4.3c0.1-0.1 0.3-0.1 0.4 0 0.1 0.1 0.1 0.3 0 0.4L9 10.5C8.7 10.7 8.3 10.8 8 10.8z" class="a"/></svg>