<svg xmlns="http://www.w3.org/2000/svg" width="16" height="19" viewBox="0 0 16 19"><style>.a{fill:#FFF;}</style><path d="M11.9 7.3c-0.1-0.4-0.3-1-0.6-1.2 -0.2-0.2-0.4-0.2-0.5-0.3L9.4 5.3C9.4 5.3 9.3 5.3 9.3 5.3c-0.1 0-0.1-0.1-0.1-0.2L9.1 4.5c0.4-0.3 0.9-1.3 0.9-2H10C10 1.7 10.1 0 8 0c-2.1 0-2 1.7-2 2.5H6c0 0.7 0.5 1.7 0.9 2L6.8 5.1c0 0.1-0.1 0.2-0.1 0.2C6.7 5.3 6.6 5.3 6.6 5.3l-1.4 0.4c-0.2 0-0.4 0.1-0.6 0.3C4.4 6.3 4.2 6.9 4.1 7.3L3.8 8.9C3.7 8.9 3.8 9 3.8 9 3.8 9 3.8 9 3.8 9h8.3c0 0 0 0 0.1 0 0 0 0 0 0-0.1L11.9 7.3z" class="a"/><defs><filter filterUnits="userSpaceOnUse" x="3.8" y="9" width="8.5" height="10"><feColorMatrix type="matrix" values="-1 0 0 0 1  0 -1 0 0 1  0 0 -1 0 1  0 0 0 1 0" color-interpolation-filters="sRGB" result="source"/></filter></defs><mask maskUnits="userSpaceOnUse" x="3.8" y="9" width="8.5" height="10"><g filter="url(#Adobe_OpacityMaskFilter)"><linearGradient gradientUnits="userSpaceOnUse" x1="8" y1="19" x2="8" y2="9"><stop offset="0" stop-color="#FFF"/><stop offset="0.2545" stop-color="#FDFDFD"/><stop offset="0.3917" stop-color="#F5F5F5"/><stop offset="0.5011" stop-color="#E7E7E7"/><stop offset="0.5958" stop-color="#D4D4D4"/><stop offset="0.681" stop-color="#BBB"/><stop offset="0.7593" stop-color="#9C9C9C"/><stop offset="0.8325" stop-color="#777"/><stop offset="0.9015" stop-color="#4C4C4C"/><stop offset="0.9649" stop-color="#1D1D1D"/><stop offset="1" stop-color="#000"/></linearGradient><rect x="3.7" y="9" width="8.5" height="10" fill="url(#SVGID_2_)"/></g></mask><g mask="url(#SVGID_1_)" opacity="0.3"><path d="M6.2 17.1v0.3c0 0.7 0.5 1.2 1.2 1.2h1.2c0.7 0 1.2-0.5 1.2-1.2v-0.3h0.4v0.3c0 0.9-0.7 1.6-1.6 1.6H7.4c-0.9 0-1.6-0.7-1.6-1.6v-0.3H6.2z" class="a"/><path d="M11.9 11c-0.1 0.4-0.3 0.8-0.6 1 -0.2 0.2-0.4 0.3-0.5 0.3l-1.4 0.5c0 0-0.1 0-0.1 0 -0.1 0.1-0.1 0.1-0.1 0.2l-0.1 0.6c0.4 0.3 0.9 1.5 0.9 2.2H10c0 0.9 0.1 2.8-2 2.8 -2.1 0-2-1.9-2-2.8H6c0-0.8 0.5-1.9 0.9-2.2L6.8 13.1c0-0.1-0.1-0.2-0.1-0.2C6.7 12.8 6.6 12.8 6.6 12.8l-1.4-0.5c-0.2 0-0.4-0.2-0.6-0.3 -0.3-0.3-0.5-0.6-0.6-1L3.8 9.1C3.7 9.1 3.8 9.1 3.8 9 3.8 9 3.8 9 3.8 9h8.3c0 0 0 0 0.1 0 0 0 0 0 0 0.1L11.9 11z" class="a"/></g></svg>
