<?xml version="1.0" encoding="utf-8"?>
<!-- Generator: Adobe Illustrator 16.0.0, SVG Export Plug-In . SVG Version: 6.00 Build 0)  -->
<!DOCTYPE svg PUBLIC "-//W3C//DTD SVG 1.1//EN" "http://www.w3.org/Graphics/SVG/1.1/DTD/svg11.dtd" [
	<!ENTITY ns_flows "http://ns.adobe.com/Flows/1.0/">
	<!ENTITY ns_extend "http://ns.adobe.com/Extensibility/1.0/">
	<!ENTITY ns_ai "http://ns.adobe.com/AdobeIllustrator/10.0/">
	<!ENTITY ns_graphs "http://ns.adobe.com/Graphs/1.0/">
]>
<svg version="1.1" id="Layer_1" xmlns:x="&ns_extend;" xmlns:i="&ns_ai;" xmlns:graph="&ns_graphs;"
	 xmlns="http://www.w3.org/2000/svg" xmlns:xlink="http://www.w3.org/1999/xlink" xmlns:a="http://ns.adobe.com/AdobeSVGViewerExtensions/3.0/"
	 x="0px" y="0px" width="16px" height="19px" viewBox="0 0 16 19" enable-background="new 0 0 16 19" xml:space="preserve">
<path fill="#808080" d="M11.5,18.2c-0.7-0.101-1.4-0.4-2.2-0.9c-1.8-1-3.6-2.8-5.2-5S1.4,7.8,1,5.8C0.6,4,0.8,2.6,1.6,2
	c0.1-0.1,0.2-0.2,0.3-0.3c0.7-0.5,1.5-1.1,2.4-0.9C4.9,0.9,5.5,1.4,6,2.3c1.4,2.5,0.5,3.2-0.6,4L5.2,6.4C5,6.5,4.6,7.2,6.9,10.3
	c0.7,1,1.4,1.8,1.9,2.3c0.3,0.301,1,0.801,1.3,0.601l0.2-0.101c1.101-0.8,2-1.5,4,0.7c0.7,0.7,0.9,1.4,0.9,2
	c-0.101,0.9-0.9,1.5-1.7,2C13.4,17.9,13.3,18,13.2,18C12.7,18.2,12.2,18.3,11.5,18.2z M4.2,1.3C3.5,1.2,2.9,1.7,2.3,2.2
	C2.2,2.3,2.1,2.4,2,2.5C1.4,2.9,1.3,4.2,1.6,5.8c0.4,2,1.5,4.2,3,6.3C6.1,14.2,7.9,15.9,9.6,16.9c1.4,0.8,2.7,1.1,3.2,0.699
	C12.9,17.5,13,17.4,13.2,17.4c0.6-0.4,1.3-0.9,1.399-1.601c0.101-0.5-0.199-1-0.699-1.6c-1.601-1.8-2.2-1.4-3.2-0.601L10.5,13.7
	C10,14,9.4,13.8,8.5,13.1c-0.6-0.5-1.2-1.3-2-2.399C4.5,8,4,6.5,4.9,5.9l0.2-0.1c1-0.7,1.6-1.2,0.4-3.3C5.1,1.8,4.7,1.4,4.2,1.3
	L4.2,1.3z"/>
</svg>
