<?xml version="1.0" encoding="utf-8"?>
<!-- Generator: Adobe Illustrator 16.0.0, SVG Export Plug-In . SVG Version: 6.00 Build 0)  -->
<!DOCTYPE svg PUBLIC "-//W3C//DTD SVG 1.1//EN" "http://www.w3.org/Graphics/SVG/1.1/DTD/svg11.dtd" [
	<!ENTITY ns_flows "http://ns.adobe.com/Flows/1.0/">
	<!ENTITY ns_extend "http://ns.adobe.com/Extensibility/1.0/">
	<!ENTITY ns_ai "http://ns.adobe.com/AdobeIllustrator/10.0/">
	<!ENTITY ns_graphs "http://ns.adobe.com/Graphs/1.0/">
]>
<svg version="1.1" id="Layer_1" xmlns:x="&ns_extend;" xmlns:i="&ns_ai;" xmlns:graph="&ns_graphs;"
	 xmlns="http://www.w3.org/2000/svg" xmlns:xlink="http://www.w3.org/1999/xlink" xmlns:a="http://ns.adobe.com/AdobeSVGViewerExtensions/3.0/"
	 x="0px" y="0px" width="16px" height="19px" viewBox="0 0 16 19" enable-background="new 0 0 16 19" xml:space="preserve">
<g>
	<path fill="#808080" d="M11.962,13.65c-0.199,0-0.3,0.1-0.3,0.3v2.7h-9.6v-7.2v-0.8h9.5v0.6c0,0.2,0.1,0.3,0.3,0.3s0.4-0.1,0.4-0.3
		v-0.9c0-0.2-0.102-0.3-0.301-0.3h-10.2c-0.2,0-0.3,0.1-0.3,0.3v0.8v0.6v7.2c0,0.2,0.1,0.3,0.3,0.3h10.2
		c0.127,0,0.199-0.055,0.246-0.136l0.055,0.036v-3.2C12.263,13.75,12.162,13.65,11.962,13.65z"/>
	<path fill="#808080" d="M14.462,8.45c-0.1-0.1-0.3-0.1-0.6,0.1l-3,3.601l-1.1-1.4c-0.101-0.2-0.301-0.1-0.4,0s-0.1,0.3,0.001,0.4
		l1.399,1.6c0.1,0.1,0.1,0.1,0.199,0.1c0.101,0,0.101,0,0.2-0.1l3.3-3.9C14.563,8.75,14.563,8.55,14.462,8.45z"/>
	<path fill="#808080" d="M3.262,5.55c0-2,1.6-3.6,3.6-3.6h0.1c2,0,3.6,1.6,3.6,3.6v2.4h0.7v-2.4c0-2.4-1.9-4.3-4.3-4.3h-0.1
		c-2.4,0-4.3,1.9-4.3,4.3v2.4h0.7V5.55z"/>
</g>
</svg>
