<?xml version="1.0" encoding="utf-8"?>
<!-- Generator: Adobe Illustrator 16.0.0, SVG Export Plug-In . SVG Version: 6.00 Build 0)  -->
<!DOCTYPE svg PUBLIC "-//W3C//DTD SVG 1.1//EN" "http://www.w3.org/Graphics/SVG/1.1/DTD/svg11.dtd" [
	<!ENTITY ns_flows "http://ns.adobe.com/Flows/1.0/">
	<!ENTITY ns_extend "http://ns.adobe.com/Extensibility/1.0/">
	<!ENTITY ns_ai "http://ns.adobe.com/AdobeIllustrator/10.0/">
	<!ENTITY ns_graphs "http://ns.adobe.com/Graphs/1.0/">
]>
<svg version="1.1" id="Layer_1" xmlns:x="&ns_extend;" xmlns:i="&ns_ai;" xmlns:graph="&ns_graphs;"
	 xmlns="http://www.w3.org/2000/svg" xmlns:xlink="http://www.w3.org/1999/xlink" xmlns:a="http://ns.adobe.com/AdobeSVGViewerExtensions/3.0/"
	 x="0px" y="0px" width="16px" height="19px" viewBox="0 0 16 19" enable-background="new 0 0 16 19" xml:space="preserve">
<path fill="#808080" d="M13.1,8.2h-0.8V5.8c0-2.4-1.899-4.3-4.3-4.3H7.9c-2.4,0-4.3,1.9-4.3,4.3v2.4H2.9c-0.2,0-0.3,0.1-0.3,0.3v8.6
	c0,0.2,0.1,0.301,0.3,0.301c0.2,0,0.3-0.101,0.3-0.301V8.9H4h8h0.8v8H3c-0.2,0-0.3,0.1-0.3,0.3s0.1,0.3,0.3,0.3h10.1
	c0.2,0,0.301-0.1,0.301-0.3V8.6C13.4,8.4,13.3,8.2,13.1,8.2z M4.3,8.2V5.8c0-2,1.6-3.6,3.6-3.6H8c2,0,3.6,1.6,3.6,3.6v2.4H4.3z"/>
<path fill="#808080" d="M8.8,12.6C8.8,12.8,8.9,12.9,9.1,12.9C9.3,12.9,9.4,12.8,9.4,12.6C9.4,11.8,8.8,11.2,8,11.2
	S6.6,11.8,6.6,12.6C6.6,13.4,7.2,14,8,14c0.2,0,0.3-0.1,0.3-0.3S8.2,13.4,8,13.4c-0.4,0-0.7-0.4-0.7-0.801
	C7.3,12.2,7.7,11.9,8.1,11.9C8.4,11.8,8.8,12.1,8.8,12.6z"/>
</svg>
