<svg xmlns="http://www.w3.org/2000/svg" width="254" height="57" viewBox="-0.8 0 254 57"><style>.a{fill:#FFF;}</style><defs><pattern x="42.2" y="54" width="69" height="69" patternUnits="userSpaceOnUse" viewBox="2.1 -70.9 69 69"><polygon points="71.1 -1.9 2.1 -1.9 2.1 -70.9 71.1 -70.9 " fill="none"/><polygon points="71.1 -1.9 2.1 -1.9 2.1 -70.9 71.1 -70.9 " fill="#F6BB60"/><path d="M61.8-71.7c0 0.1 0 0.1 0 0.2 -0.1 0.1-0.1 0.1-0.2 0.1 -0.1 0.1-0.1 0.3-0.1 0.4 -0.2 0.1 0 0.2 0 0.3 0 0 0 0.1 0 0.2 0 0.1 0 0.3 0.1 0.4 0.1 0.2 0.3 0.4 0.4 0.5 0.2 0.1 0.4 0.6 0.6 0.6 0.2 0 0.4-0.1 0.5-0.1 0.2 0 0.4 0 0.6-0.1 0.2-0.1 0.1-0.3 0.3-0.5 0.1-0.1 0.3 0 0.4-0.1 0.2-0.1 0.3-0.3 0.4-0.5 0-0.1 0-0.1 0-0.2 0-0.1 0.1-0.2 0.1-0.3 0-0.1-0.1-0.1-0.1-0.2 0-0.1 0-0.2 0-0.3 0-0.2 0-0.4-0.1-0.5 -0.4-0.7-1.2-0.9-2-0.8 -0.2 0-0.3 0.1-0.4 0.2 -0.2 0.1-0.1 0.2-0.3 0.2 -0.1 0-0.2 0.1-0.2 0.2 0 0.1 0 0.1 0 0.2 0 0 0 0 0 0" class="a"/><path d="M54.1-71.7c0 0.1 0 0.1 0 0.2 -0.1 0.1-0.1 0.1-0.2 0.1 -0.1 0.1-0.1 0.3-0.1 0.4 -0.2 0.1 0 0.2 0 0.3 0 0 0 0.1 0 0.2 0 0.1 0 0.3 0.1 0.4 0.1 0.2 0.3 0.4 0.4 0.5 0.2 0.1 0.4 0.6 0.6 0.6 0.2 0 0.4-0.1 0.5-0.1 0.2 0 0.4 0 0.6-0.1 0.2-0.1 0.1-0.3 0.3-0.5 0.1-0.1 0.3 0 0.4-0.1 0.2-0.1 0.3-0.3 0.4-0.5 0-0.1 0-0.1 0-0.2 0-0.1 0.1-0.2 0.1-0.3 0-0.1-0.1-0.1-0.1-0.2 0-0.1 0-0.2 0-0.3 0-0.2 0-0.4-0.1-0.5 -0.4-0.7-1.2-0.9-2-0.8 -0.2 0-0.3 0.1-0.4 0.2 -0.2 0.1-0.1 0.2-0.3 0.2 -0.1 0-0.2 0.1-0.2 0.2 0 0.1 0 0.1 0 0.2 0 0 0 0 0 0" class="a"/><path d="M46.4-71.7c0 0.1 0 0.1 0 0.2 -0.1 0.1-0.1 0.1-0.2 0.1 -0.1 0.1-0.1 0.3-0.1 0.4C46-70.9 46.2-70.7 46.2-70.6c0 0 0 0.1 0 0.2 0 0.1 0 0.3 0.1 0.4 0.1 0.2 0.3 0.4 0.4 0.5 0.2 0.1 0.4 0.6 0.6 0.6 0.2 0 0.4-0.1 0.5-0.1 0.2 0 0.4 0 0.6-0.1 0.2-0.1 0.1-0.3 0.3-0.5 0.1-0.1 0.3 0 0.4-0.1 0.2-0.1 0.3-0.3 0.4-0.5 0-0.1 0-0.1 0-0.2 0-0.1 0.1-0.2 0.1-0.3 0-0.1-0.1-0.1-0.1-0.2 0-0.1 0-0.2 0-0.3 0-0.2 0-0.4-0.1-0.5 -0.4-0.7-1.2-0.9-2-0.8 -0.2 0-0.3 0.1-0.4 0.2 -0.2 0.1-0.1 0.2-0.3 0.2 -0.1 0-0.2 0.1-0.2 0.2 0 0.1 0 0.1 0 0.2 0 0 0 0 0 0" class="a"/><path d="M38.8-71.7c0 0.1 0 0.1 0 0.2 -0.1 0.1-0.1 0.1-0.2 0.1 -0.1 0.1-0.1 0.3-0.1 0.4 -0.2 0.1 0 0.2 0 0.3 0 0 0 0.1 0 0.2 0 0.1 0 0.3 0.1 0.4 0.1 0.2 0.3 0.4 0.4 0.5 0.2 0.1 0.4 0.6 0.6 0.6 0.2 0 0.4-0.1 0.5-0.1 0.2 0 0.4 0 0.6-0.1 0.2-0.1 0.1-0.3 0.3-0.5 0.1-0.1 0.3 0 0.4-0.1 0.2-0.1 0.3-0.3 0.4-0.5 0-0.1 0-0.1 0-0.2 0-0.1 0.1-0.2 0.1-0.3 0-0.1-0.1-0.1-0.1-0.2 0-0.1 0-0.2 0-0.3 0-0.2 0-0.4-0.1-0.5 -0.4-0.7-1.2-0.9-2-0.8 -0.2 0-0.3 0.1-0.4 0.2 -0.2 0.1-0.1 0.2-0.3 0.2 -0.1 0-0.2 0.1-0.2 0.2 0 0.1 0 0.1 0 0.2 0 0 0 0 0 0" class="a"/><path d="M31.1-71.7c0 0.1 0 0.1 0 0.2 -0.1 0.1-0.1 0.1-0.2 0.1 -0.1 0.1-0.1 0.3-0.1 0.4 -0.2 0.1 0 0.2 0 0.3 0 0 0 0.1 0 0.2 0 0.1 0 0.3 0.1 0.4 0.1 0.2 0.3 0.4 0.4 0.5 0.2 0.1 0.4 0.6 0.6 0.6 0.2 0 0.4-0.1 0.5-0.1 0.2 0 0.4 0 0.6-0.1 0.2-0.1 0.1-0.3 0.3-0.5 0.1-0.1 0.3 0 0.4-0.1 0.2-0.1 0.3-0.3 0.4-0.5 0-0.1 0-0.1 0-0.2 0-0.1 0.1-0.2 0.1-0.3 0-0.1-0.1-0.1-0.1-0.2 0-0.1 0-0.2 0-0.3 0-0.2 0-0.4-0.1-0.5 -0.4-0.7-1.2-0.9-2-0.8 -0.2 0-0.3 0.1-0.4 0.2 -0.2 0.1-0.1 0.2-0.3 0.2 -0.1 0-0.2 0.1-0.2 0.2 0 0.1 0 0.1 0 0.2 0 0 0 0 0 0" class="a"/><path d="M23.4-71.7c0 0.1 0 0.1 0 0.2 -0.1 0.1-0.1 0.1-0.2 0.1 -0.1 0.1-0.1 0.3-0.1 0.4C23-70.9 23.2-70.7 23.2-70.6c0 0 0 0.1 0 0.2 0 0.1 0 0.3 0.1 0.4 0.1 0.2 0.3 0.4 0.4 0.5 0.2 0.1 0.4 0.6 0.6 0.6 0.2 0 0.4-0.1 0.5-0.1 0.2 0 0.4 0 0.6-0.1 0.2-0.1 0.1-0.3 0.3-0.5 0.1-0.1 0.3 0 0.4-0.1 0.2-0.1 0.3-0.3 0.4-0.5 0-0.1 0-0.1 0-0.2 0-0.1 0.1-0.2 0.1-0.3 0-0.1-0.1-0.1-0.1-0.2 0-0.1 0-0.2 0-0.3 0-0.2 0-0.4-0.1-0.5 -0.4-0.7-1.2-0.9-2-0.8 -0.2 0-0.3 0.1-0.4 0.2 -0.2 0.1-0.1 0.2-0.3 0.2 -0.1 0-0.2 0.1-0.2 0.2 0 0.1 0 0.1 0 0.2 0 0 0 0 0 0" class="a"/><path d="M15.8-71.7c0 0.1 0 0.1 0 0.2 -0.1 0.1-0.1 0.1-0.2 0.1 -0.1 0.1-0.1 0.3-0.1 0.4 -0.2 0.1 0 0.2 0 0.3 0 0 0 0.1 0 0.2 0 0.1 0 0.3 0.1 0.4 0.1 0.2 0.3 0.4 0.4 0.5 0.2 0.1 0.4 0.6 0.6 0.6 0.2 0 0.4-0.1 0.5-0.1 0.2 0 0.4 0 0.6-0.1 0.2-0.1 0.1-0.3 0.3-0.5 0.1-0.1 0.3 0 0.4-0.1 0.2-0.1 0.3-0.3 0.4-0.5 0-0.1 0-0.1 0-0.2 0-0.1 0.1-0.2 0.1-0.3 0-0.1-0.1-0.1-0.1-0.2 0-0.1 0-0.2 0-0.3 0-0.2 0-0.4-0.1-0.5 -0.4-0.7-1.2-0.9-2-0.8 -0.2 0-0.3 0.1-0.4 0.2 -0.2 0.1-0.1 0.2-0.3 0.2 -0.1 0-0.2 0.1-0.2 0.2 0 0.1 0 0.1 0 0.2 0 0 0 0 0 0" class="a"/><path d="M8.1-71.7c0 0.1 0 0.1 0 0.2 -0.1 0.1-0.1 0.1-0.2 0.1 -0.1 0.1-0.1 0.3-0.1 0.4 -0.2 0.1 0 0.2 0 0.3 0 0 0 0.1 0 0.2 0 0.1 0 0.3 0.1 0.4 0.1 0.2 0.3 0.4 0.4 0.5 0.2 0.1 0.4 0.6 0.6 0.6 0.2 0 0.4-0.1 0.5-0.1 0.2 0 0.4 0 0.6-0.1 0.2-0.1 0.1-0.3 0.3-0.5 0.1-0.1 0.3 0 0.4-0.1 0.2-0.1 0.3-0.3 0.4-0.5 0-0.1 0-0.1 0-0.2 0-0.1 0.1-0.2 0.1-0.3 0-0.1-0.1-0.1-0.1-0.2 0-0.1 0-0.2 0-0.3 0-0.2 0-0.4-0.1-0.5 -0.4-0.7-1.2-0.9-2-0.8 -0.2 0-0.3 0.1-0.4 0.2 -0.2 0.1-0.1 0.2-0.3 0.2 -0.1 0-0.2 0.1-0.2 0.2 0 0.1 0 0.1 0 0.2 0 0 0 0 0 0" class="a"/><path d="M0.4-71.7c0 0.1 0 0.1 0 0.2 -0.1 0.1-0.1 0.1-0.2 0.1 -0.1 0.1-0.1 0.3-0.1 0.4C0-70.9 0.2-70.7 0.2-70.6c0 0 0 0.1 0 0.2 0 0.1 0 0.3 0.1 0.4 0.1 0.2 0.3 0.4 0.4 0.5 0.2 0.1 0.4 0.6 0.6 0.6 0.2 0 0.4-0.1 0.5-0.1 0.2 0 0.4 0 0.6-0.1 0.2-0.1 0.1-0.3 0.3-0.5 0.1-0.1 0.3 0 0.4-0.1 0.2-0.1 0.3-0.3 0.4-0.5 0-0.1 0-0.1 0-0.2 0-0.1 0.1-0.2 0.1-0.3 0-0.1-0.1-0.1-0.1-0.2 0-0.1 0-0.2 0-0.3 0-0.2 0-0.4-0.1-0.5 -0.4-0.7-1.2-0.9-2-0.8 -0.2 0-0.3 0.1-0.4 0.2 -0.2 0.1-0.1 0.2-0.3 0.2 -0.1 0-0.2 0.1-0.2 0.2 0 0.1 0 0.1 0 0.2 0 0 0 0 0 0" class="a"/><path d="M69.4-71.7c0 0.1 0 0.1 0 0.2 -0.1 0.1-0.1 0.1-0.2 0.1 -0.1 0.1-0.1 0.3-0.1 0.4C69-70.9 69.2-70.7 69.2-70.6c0 0 0 0.1 0 0.2 0 0.1 0 0.3 0.1 0.4 0.1 0.2 0.3 0.4 0.4 0.5 0.2 0.1 0.4 0.6 0.6 0.6 0.2 0 0.4-0.1 0.5-0.1 0.2 0 0.4 0 0.6-0.1 0.2-0.1 0.1-0.3 0.3-0.5 0.1-0.1 0.3 0 0.4-0.1 0.2-0.1 0.3-0.3 0.4-0.5 0-0.1 0-0.1 0-0.2 0-0.1 0.1-0.2 0.1-0.3 0-0.1-0.1-0.1-0.1-0.2 0-0.1 0-0.2 0-0.3 0-0.2 0-0.4-0.1-0.5 -0.4-0.7-1.2-0.9-2-0.8 -0.2 0-0.3 0.1-0.4 0.2 -0.2 0.1-0.1 0.2-0.3 0.2 -0.1 0-0.2 0.1-0.2 0.2 0 0.1 0 0.1 0 0.2 0 0 0 0 0 0" class="a"/><path d="M0.5-71.7c0 0.1 0 0.1 0 0.2 -0.1 0.1-0.1 0.1-0.2 0.1 -0.1 0.1-0.1 0.3-0.1 0.4C0.1-70.9 0.2-70.7 0.2-70.6c0 0 0 0.1 0 0.2 0 0.1 0 0.3 0.1 0.4 0.1 0.2 0.3 0.4 0.4 0.5 0.2 0.1 0.4 0.6 0.6 0.6 0.2 0 0.4-0.1 0.5-0.1 0.2 0 0.4 0 0.6-0.1 0.2-0.1 0.1-0.3 0.3-0.5 0.1-0.1 0.3 0 0.4-0.1 0.2-0.1 0.3-0.3 0.4-0.5 0-0.1 0-0.1 0-0.2 0-0.1 0.1-0.2 0.1-0.3 0-0.1-0.1-0.1-0.1-0.2 0-0.1 0-0.2 0-0.3 0-0.2 0-0.4-0.1-0.5 -0.4-0.7-1.2-0.9-2-0.8 -0.2 0-0.3 0.1-0.4 0.2 -0.2 0.1-0.1 0.2-0.3 0.2 -0.1 0-0.2 0.1-0.2 0.2 0 0.1 0 0.1 0 0.2 0 0 0 0 0 0" class="a"/><path d="M69.4-64c0 0.1 0 0.1 0 0.2 -0.1 0.1-0.1 0.1-0.2 0.1 -0.1 0.1-0.1 0.3-0.1 0.4 -0.2 0.1 0 0.2 0 0.3 0 0 0 0.1 0 0.2 0 0.1 0 0.3 0.1 0.4 0.1 0.2 0.3 0.4 0.4 0.5 0.2 0.1 0.4 0.6 0.6 0.6 0.2 0 0.4-0.1 0.5-0.1 0.2 0 0.4 0 0.6-0.1 0.2-0.1 0.1-0.3 0.3-0.5 0.1-0.1 0.3 0 0.4-0.1 0.2-0.1 0.3-0.3 0.4-0.5 0-0.1 0-0.1 0-0.2 0-0.1 0.1-0.2 0.1-0.3 0-0.1-0.1-0.1-0.1-0.2 0-0.1 0-0.2 0-0.3 0-0.2 0-0.4-0.1-0.5 -0.4-0.7-1.2-0.9-2-0.8 -0.2 0-0.3 0.1-0.4 0.2 -0.2 0.1-0.1 0.2-0.3 0.2 -0.1 0-0.2 0.1-0.2 0.2 0 0.1 0 0.1 0 0.2 0 0 0 0 0 0" class="a"/><path d="M61.8-64c0 0.1 0 0.1 0 0.2 -0.1 0.1-0.1 0.1-0.2 0.1 -0.1 0.1-0.1 0.3-0.1 0.4 -0.2 0.1 0 0.2 0 0.3 0 0 0 0.1 0 0.2 0 0.1 0 0.3 0.1 0.4 0.1 0.2 0.3 0.4 0.4 0.5 0.2 0.1 0.4 0.6 0.6 0.6 0.2 0 0.4-0.1 0.5-0.1 0.2 0 0.4 0 0.6-0.1 0.2-0.1 0.1-0.3 0.3-0.5 0.1-0.1 0.3 0 0.4-0.1 0.2-0.1 0.3-0.3 0.4-0.5 0-0.1 0-0.1 0-0.2 0-0.1 0.1-0.2 0.1-0.3 0-0.1-0.1-0.1-0.1-0.2 0-0.1 0-0.2 0-0.3 0-0.2 0-0.4-0.1-0.5 -0.4-0.7-1.2-0.9-2-0.8 -0.2 0-0.3 0.1-0.4 0.2 -0.2 0.1-0.1 0.2-0.3 0.2 -0.1 0-0.2 0.1-0.2 0.2 0 0.1 0 0.1 0 0.2 0 0 0 0 0 0" class="a"/><path d="M54.1-64c0 0.1 0 0.1 0 0.2 -0.1 0.1-0.1 0.1-0.2 0.1 -0.1 0.1-0.1 0.3-0.1 0.4 -0.2 0.1 0 0.2 0 0.3 0 0 0 0.1 0 0.2 0 0.1 0 0.3 0.1 0.4 0.1 0.2 0.3 0.4 0.4 0.5 0.2 0.1 0.4 0.6 0.6 0.6 0.2 0 0.4-0.1 0.5-0.1 0.2 0 0.4 0 0.6-0.1 0.2-0.1 0.1-0.3 0.3-0.5 0.1-0.1 0.3 0 0.4-0.1 0.2-0.1 0.3-0.3 0.4-0.5 0-0.1 0-0.1 0-0.2 0-0.1 0.1-0.2 0.1-0.3 0-0.1-0.1-0.1-0.1-0.2 0-0.1 0-0.2 0-0.3 0-0.2 0-0.4-0.1-0.5 -0.4-0.7-1.2-0.9-2-0.8 -0.2 0-0.3 0.1-0.4 0.2 -0.2 0.1-0.1 0.2-0.3 0.2 -0.1 0-0.2 0.1-0.2 0.2 0 0.1 0 0.1 0 0.2 0 0 0 0 0 0" class="a"/><path d="M46.5-64c0 0.1 0 0.1 0 0.2 -0.1 0.1-0.1 0.1-0.2 0.1 -0.1 0.1-0.1 0.3-0.1 0.4 -0.2 0.1 0 0.2 0 0.3 0 0 0 0.1 0 0.2 0 0.1 0 0.3 0.1 0.4 0.1 0.2 0.3 0.4 0.4 0.5 0.2 0.1 0.4 0.6 0.6 0.6 0.2 0 0.4-0.1 0.5-0.1 0.2 0 0.4 0 0.6-0.1 0.2-0.1 0.1-0.3 0.3-0.5 0.1-0.1 0.3 0 0.4-0.1 0.2-0.1 0.3-0.3 0.4-0.5 0-0.1 0-0.1 0-0.2 0-0.1 0.1-0.2 0.1-0.3 0-0.1-0.1-0.1-0.1-0.2 0-0.1 0-0.2 0-0.3 0-0.2 0-0.4-0.1-0.5 -0.4-0.7-1.2-0.9-2-0.8 -0.2 0-0.3 0.1-0.4 0.2 -0.2 0.1-0.1 0.2-0.3 0.2 -0.1 0-0.2 0.1-0.2 0.2 0 0.1 0 0.1 0 0.2 0 0 0 0 0 0" class="a"/><path d="M38.8-64c0 0.1 0 0.1 0 0.2 -0.1 0.1-0.1 0.1-0.2 0.1 -0.1 0.1-0.1 0.3-0.1 0.4 -0.2 0.1 0 0.2 0 0.3 0 0 0 0.1 0 0.2 0 0.1 0 0.3 0.1 0.4 0.1 0.2 0.3 0.4 0.4 0.5 0.2 0.1 0.4 0.6 0.6 0.6 0.2 0 0.4-0.1 0.5-0.1 0.2 0 0.4 0 0.6-0.1 0.2-0.1 0.1-0.3 0.3-0.5 0.1-0.1 0.3 0 0.4-0.1 0.2-0.1 0.3-0.3 0.4-0.5 0-0.1 0-0.1 0-0.2 0-0.1 0.1-0.2 0.1-0.3 0-0.1-0.1-0.1-0.1-0.2 0-0.1 0-0.2 0-0.3 0-0.2 0-0.4-0.1-0.5 -0.4-0.7-1.2-0.9-2-0.8 -0.2 0-0.3 0.1-0.4 0.2 -0.2 0.1-0.1 0.2-0.3 0.2 -0.1 0-0.2 0.1-0.2 0.2 0 0.1 0 0.1 0 0.2 0 0 0 0 0 0" class="a"/><path d="M31.1-64c0 0.1 0 0.1 0 0.2 -0.1 0.1-0.1 0.1-0.2 0.1 -0.1 0.1-0.1 0.3-0.1 0.4 -0.2 0.1 0 0.2 0 0.3 0 0 0 0.1 0 0.2 0 0.1 0 0.3 0.1 0.4 0.1 0.2 0.3 0.4 0.4 0.5 0.2 0.1 0.4 0.6 0.6 0.6 0.2 0 0.4-0.1 0.5-0.1 0.2 0 0.4 0 0.6-0.1 0.2-0.1 0.1-0.3 0.3-0.5 0.1-0.1 0.3 0 0.4-0.1 0.2-0.1 0.3-0.3 0.4-0.5 0-0.1 0-0.1 0-0.2 0-0.1 0.1-0.2 0.1-0.3 0-0.1-0.1-0.1-0.1-0.2 0-0.1 0-0.2 0-0.3 0-0.2 0-0.4-0.1-0.5 -0.4-0.7-1.2-0.9-2-0.8 -0.2 0-0.3 0.1-0.4 0.2 -0.2 0.1-0.1 0.2-0.3 0.2 -0.1 0-0.2 0.1-0.2 0.2 0 0.1 0 0.1 0 0.2 0 0 0 0 0 0" class="a"/><path d="M23.5-64c0 0.1 0 0.1 0 0.2 -0.1 0.1-0.1 0.1-0.2 0.1 -0.1 0.1-0.1 0.3-0.1 0.4 -0.2 0.1 0 0.2 0 0.3 0 0 0 0.1 0 0.2 0 0.1 0 0.3 0.1 0.4 0.1 0.2 0.3 0.4 0.4 0.5 0.2 0.1 0.4 0.6 0.6 0.6 0.2 0 0.4-0.1 0.5-0.1 0.2 0 0.4 0 0.6-0.1 0.2-0.1 0.1-0.3 0.3-0.5 0.1-0.1 0.3 0 0.4-0.1 0.2-0.1 0.3-0.3 0.4-0.5 0-0.1 0-0.1 0-0.2 0-0.1 0.1-0.2 0.1-0.3 0-0.1-0.1-0.1-0.1-0.2 0-0.1 0-0.2 0-0.3 0-0.2 0-0.4-0.1-0.5 -0.4-0.7-1.2-0.9-2-0.8 -0.2 0-0.3 0.1-0.4 0.2 -0.2 0.1-0.1 0.2-0.3 0.2 -0.1 0-0.2 0.1-0.2 0.2 0 0.1 0 0.1 0 0.2 0 0 0 0 0 0" class="a"/><path d="M15.8-64c0 0.1 0 0.1 0 0.2 -0.1 0.1-0.1 0.1-0.2 0.1 -0.1 0.1-0.1 0.3-0.1 0.4 -0.2 0.1 0 0.2 0 0.3 0 0 0 0.1 0 0.2 0 0.1 0 0.3 0.1 0.4 0.1 0.2 0.3 0.4 0.4 0.5 0.2 0.1 0.4 0.6 0.6 0.6 0.2 0 0.4-0.1 0.5-0.1 0.2 0 0.4 0 0.6-0.1 0.2-0.1 0.1-0.3 0.3-0.5 0.1-0.1 0.3 0 0.4-0.1 0.2-0.1 0.3-0.3 0.4-0.5 0-0.1 0-0.1 0-0.2 0-0.1 0.1-0.2 0.1-0.3 0-0.1-0.1-0.1-0.1-0.2 0-0.1 0-0.2 0-0.3 0-0.2 0-0.4-0.1-0.5 -0.4-0.7-1.2-0.9-2-0.8 -0.2 0-0.3 0.1-0.4 0.2 -0.2 0.1-0.1 0.2-0.3 0.2 -0.1 0-0.2 0.1-0.2 0.2 0 0.1 0 0.1 0 0.2 0 0 0 0 0 0" class="a"/><path d="M8.2-64c0 0.1 0 0.1 0 0.2 -0.1 0.1-0.1 0.1-0.2 0.1 -0.1 0.1-0.1 0.3-0.1 0.4 -0.2 0.1 0 0.2 0 0.3 0 0 0 0.1 0 0.2 0 0.1 0 0.3 0.1 0.4 0.1 0.2 0.3 0.4 0.4 0.5 0.2 0.1 0.4 0.6 0.6 0.6 0.2 0 0.4-0.1 0.5-0.1 0.2 0 0.4 0 0.6-0.1 0.2-0.1 0.1-0.3 0.3-0.5 0.1-0.1 0.3 0 0.4-0.1 0.2-0.1 0.3-0.3 0.4-0.5 0-0.1 0-0.1 0-0.2 0-0.1 0.1-0.2 0.1-0.3 0-0.1-0.1-0.1-0.1-0.2 0-0.1 0-0.2 0-0.3 0-0.2 0-0.4-0.1-0.5 -0.4-0.7-1.2-0.9-2-0.8 -0.2 0-0.3 0.1-0.4 0.2 -0.2 0.1-0.1 0.2-0.3 0.2 -0.1 0-0.2 0.1-0.2 0.2 0 0.1 0 0.1 0 0.2 0 0 0 0 0 0" class="a"/><path d="M0.5-64c0 0.1 0 0.1 0 0.2 -0.1 0.1-0.1 0.1-0.2 0.1 -0.1 0.1-0.1 0.3-0.1 0.4 -0.2 0.1 0 0.2 0 0.3 0 0 0 0.1 0 0.2 0 0.1 0 0.3 0.1 0.4 0.1 0.2 0.3 0.4 0.4 0.5 0.2 0.1 0.4 0.6 0.6 0.6 0.2 0 0.4-0.1 0.5-0.1 0.2 0 0.4 0 0.6-0.1 0.2-0.1 0.1-0.3 0.3-0.5 0.1-0.1 0.3 0 0.4-0.1 0.2-0.1 0.3-0.3 0.4-0.5 0-0.1 0-0.1 0-0.2 0-0.1 0.1-0.2 0.1-0.3 0-0.1-0.1-0.1-0.1-0.2 0-0.1 0-0.2 0-0.3 0-0.2 0-0.4-0.1-0.5 -0.4-0.7-1.2-0.9-2-0.8 -0.2 0-0.3 0.1-0.4 0.2 -0.2 0.1-0.1 0.2-0.3 0.2 -0.1 0-0.2 0.1-0.2 0.2 0 0.1 0 0.1 0 0.2 0 0 0 0 0 0" class="a"/><path d="M69.4-56.3c0 0.1 0 0.1 0 0.2 -0.1 0.1-0.1 0.1-0.2 0.1 -0.1 0.1-0.1 0.3-0.1 0.4 -0.2 0.1 0 0.2 0 0.3 0 0 0 0.1 0 0.2 0 0.1 0 0.3 0.1 0.4 0.1 0.2 0.3 0.4 0.4 0.5 0.2 0.1 0.4 0.6 0.6 0.6 0.2 0 0.4-0.1 0.5-0.1 0.2 0 0.4 0 0.6-0.1 0.2-0.1 0.1-0.3 0.3-0.5 0.1-0.1 0.3 0 0.4-0.1 0.2-0.1 0.3-0.3 0.4-0.5 0-0.1 0-0.1 0-0.2 0-0.1 0.1-0.2 0.1-0.3 0-0.1-0.1-0.1-0.1-0.2 0-0.1 0-0.2 0-0.3 0-0.2 0-0.4-0.1-0.5 -0.4-0.7-1.2-0.9-2-0.8 -0.2 0-0.3 0.1-0.4 0.2 -0.2 0.1-0.1 0.2-0.3 0.2 -0.1 0-0.2 0.1-0.2 0.2 0 0.1 0 0.1 0 0.2 0 0 0 0 0 0" class="a"/><path d="M61.8-56.3c0 0.1 0 0.1 0 0.2 -0.1 0.1-0.1 0.1-0.2 0.1 -0.1 0.1-0.1 0.3-0.1 0.4 -0.2 0.1 0 0.2 0 0.3 0 0 0 0.1 0 0.2 0 0.1 0 0.3 0.1 0.4 0.1 0.2 0.3 0.4 0.4 0.5 0.2 0.1 0.4 0.6 0.6 0.6 0.2 0 0.4-0.1 0.5-0.1 0.2 0 0.4 0 0.6-0.1 0.2-0.1 0.1-0.3 0.3-0.5 0.1-0.1 0.3 0 0.4-0.1 0.2-0.1 0.3-0.3 0.4-0.5 0-0.1 0-0.1 0-0.2 0-0.1 0.1-0.2 0.1-0.3 0-0.1-0.1-0.1-0.1-0.2 0-0.1 0-0.2 0-0.3 0-0.2 0-0.4-0.1-0.5 -0.4-0.7-1.2-0.9-2-0.8 -0.2 0-0.3 0.1-0.4 0.2 -0.2 0.1-0.1 0.2-0.3 0.2 -0.1 0-0.2 0.1-0.2 0.2 0 0.1 0 0.1 0 0.2 0 0 0 0 0 0" class="a"/><path d="M54.1-56.3c0 0.1 0 0.1 0 0.2 -0.1 0.1-0.1 0.1-0.2 0.1 -0.1 0.1-0.1 0.3-0.1 0.4 -0.2 0.1 0 0.2 0 0.3 0 0 0 0.1 0 0.2 0 0.1 0 0.3 0.1 0.4 0.1 0.2 0.3 0.4 0.4 0.5 0.2 0.1 0.4 0.6 0.6 0.6 0.2 0 0.4-0.1 0.5-0.1 0.2 0 0.4 0 0.6-0.1 0.2-0.1 0.1-0.3 0.3-0.5 0.1-0.1 0.3 0 0.4-0.1 0.2-0.1 0.3-0.3 0.4-0.5 0-0.1 0-0.1 0-0.2 0-0.1 0.1-0.2 0.1-0.3 0-0.1-0.1-0.1-0.1-0.2 0-0.1 0-0.2 0-0.3 0-0.2 0-0.4-0.1-0.5 -0.4-0.7-1.2-0.9-2-0.8 -0.2 0-0.3 0.1-0.4 0.2 -0.2 0.1-0.1 0.2-0.3 0.2 -0.1 0-0.2 0.1-0.2 0.2 0 0.1 0 0.1 0 0.2 0 0 0 0 0 0" class="a"/><path d="M46.5-56.3c0 0.1 0 0.1 0 0.2 -0.1 0.1-0.1 0.1-0.2 0.1 -0.1 0.1-0.1 0.3-0.1 0.4 -0.2 0.1 0 0.2 0 0.3 0 0 0 0.1 0 0.2 0 0.1 0 0.3 0.1 0.4 0.1 0.2 0.3 0.4 0.4 0.5 0.2 0.1 0.4 0.6 0.6 0.6 0.2 0 0.4-0.1 0.5-0.1 0.2 0 0.4 0 0.6-0.1 0.2-0.1 0.1-0.3 0.3-0.5 0.1-0.1 0.3 0 0.4-0.1 0.2-0.1 0.3-0.3 0.4-0.5 0-0.1 0-0.1 0-0.2 0-0.1 0.1-0.2 0.1-0.3 0-0.1-0.1-0.1-0.1-0.2 0-0.1 0-0.2 0-0.3 0-0.2 0-0.4-0.1-0.5 -0.4-0.7-1.2-0.9-2-0.8 -0.2 0-0.3 0.1-0.4 0.2 -0.2 0.1-0.1 0.2-0.3 0.2 -0.1 0-0.2 0.1-0.2 0.2 0 0.1 0 0.1 0 0.2 0 0 0 0 0 0" class="a"/><path d="M38.8-56.3c0 0.1 0 0.1 0 0.2 -0.1 0.1-0.1 0.1-0.2 0.1 -0.1 0.1-0.1 0.3-0.1 0.4 -0.2 0.1 0 0.2 0 0.3 0 0 0 0.1 0 0.2 0 0.1 0 0.3 0.1 0.4 0.1 0.2 0.3 0.4 0.4 0.5 0.2 0.1 0.4 0.6 0.6 0.6 0.2 0 0.4-0.1 0.5-0.1 0.2 0 0.4 0 0.6-0.1 0.2-0.1 0.1-0.3 0.3-0.5 0.1-0.1 0.3 0 0.4-0.1 0.2-0.1 0.3-0.3 0.4-0.5 0-0.1 0-0.1 0-0.2 0-0.1 0.1-0.2 0.1-0.3 0-0.1-0.1-0.1-0.1-0.2 0-0.1 0-0.2 0-0.3 0-0.2 0-0.4-0.1-0.5 -0.4-0.7-1.2-0.9-2-0.8 -0.2 0-0.3 0.1-0.4 0.2 -0.2 0.1-0.1 0.2-0.3 0.2 -0.1 0-0.2 0.1-0.2 0.2 0 0.1 0 0.1 0 0.2 0 0 0 0 0 0" class="a"/><path d="M31.1-56.3c0 0.1 0 0.1 0 0.2 -0.1 0.1-0.1 0.1-0.2 0.1 -0.1 0.1-0.1 0.3-0.1 0.4 -0.2 0.1 0 0.2 0 0.3 0 0 0 0.1 0 0.2 0 0.1 0 0.3 0.1 0.4 0.1 0.2 0.3 0.4 0.4 0.5 0.2 0.1 0.4 0.6 0.6 0.6 0.2 0 0.4-0.1 0.5-0.1 0.2 0 0.4 0 0.6-0.1 0.2-0.1 0.1-0.3 0.3-0.5 0.1-0.1 0.3 0 0.4-0.1 0.2-0.1 0.3-0.3 0.4-0.5 0-0.1 0-0.1 0-0.2 0-0.1 0.1-0.2 0.1-0.3 0-0.1-0.1-0.1-0.1-0.2 0-0.1 0-0.2 0-0.3 0-0.2 0-0.4-0.1-0.5 -0.4-0.7-1.2-0.9-2-0.8 -0.2 0-0.3 0.1-0.4 0.2 -0.2 0.1-0.1 0.2-0.3 0.2 -0.1 0-0.2 0.1-0.2 0.2 0 0.1 0 0.1 0 0.2 0 0 0 0 0 0" class="a"/><path d="M23.5-56.3c0 0.1 0 0.1 0 0.2 -0.1 0.1-0.1 0.1-0.2 0.1 -0.1 0.1-0.1 0.3-0.1 0.4 -0.2 0.1 0 0.2 0 0.3 0 0 0 0.1 0 0.2 0 0.1 0 0.3 0.1 0.4 0.1 0.2 0.3 0.4 0.4 0.5 0.2 0.1 0.4 0.6 0.6 0.6 0.2 0 0.4-0.1 0.5-0.1 0.2 0 0.4 0 0.6-0.1 0.2-0.1 0.1-0.3 0.3-0.5 0.1-0.1 0.3 0 0.4-0.1 0.2-0.1 0.3-0.3 0.4-0.5 0-0.1 0-0.1 0-0.2 0-0.1 0.1-0.2 0.1-0.3 0-0.1-0.1-0.1-0.1-0.2 0-0.1 0-0.2 0-0.3 0-0.2 0-0.4-0.1-0.5 -0.4-0.7-1.2-0.9-2-0.8 -0.2 0-0.3 0.1-0.4 0.2 -0.2 0.1-0.1 0.2-0.3 0.2 -0.1 0-0.2 0.1-0.2 0.2 0 0.1 0 0.1 0 0.2 0 0 0 0 0 0" class="a"/><path d="M15.8-56.3c0 0.1 0 0.1 0 0.2 -0.1 0.1-0.1 0.1-0.2 0.1 -0.1 0.1-0.1 0.3-0.1 0.4 -0.2 0.1 0 0.2 0 0.3 0 0 0 0.1 0 0.2 0 0.1 0 0.3 0.1 0.4 0.1 0.2 0.3 0.4 0.4 0.5 0.2 0.1 0.4 0.6 0.6 0.6 0.2 0 0.4-0.1 0.5-0.1 0.2 0 0.4 0 0.6-0.1 0.2-0.1 0.1-0.3 0.3-0.5 0.1-0.1 0.3 0 0.4-0.1 0.2-0.1 0.3-0.3 0.4-0.5 0-0.1 0-0.1 0-0.2 0-0.1 0.1-0.2 0.1-0.3 0-0.1-0.1-0.1-0.1-0.2 0-0.1 0-0.2 0-0.3 0-0.2 0-0.4-0.1-0.5 -0.4-0.7-1.2-0.9-2-0.8 -0.2 0-0.3 0.1-0.4 0.2 -0.2 0.1-0.1 0.2-0.3 0.2 -0.1 0-0.2 0.1-0.2 0.2 0 0.1 0 0.1 0 0.2 0 0 0 0 0 0" class="a"/><path d="M8.2-56.3c0 0.1 0 0.1 0 0.2 -0.1 0.1-0.1 0.1-0.2 0.1 -0.1 0.1-0.1 0.3-0.1 0.4 -0.2 0.1 0 0.2 0 0.3 0 0 0 0.1 0 0.2 0 0.1 0 0.3 0.1 0.4 0.1 0.2 0.3 0.4 0.4 0.5 0.2 0.1 0.4 0.6 0.6 0.6 0.2 0 0.4-0.1 0.5-0.1 0.2 0 0.4 0 0.6-0.1 0.2-0.1 0.1-0.3 0.3-0.5 0.1-0.1 0.3 0 0.4-0.1 0.2-0.1 0.3-0.3 0.4-0.5 0-0.1 0-0.1 0-0.2 0-0.1 0.1-0.2 0.1-0.3 0-0.1-0.1-0.1-0.1-0.2 0-0.1 0-0.2 0-0.3 0-0.2 0-0.4-0.1-0.5 -0.4-0.7-1.2-0.9-2-0.8 -0.2 0-0.3 0.1-0.4 0.2 -0.2 0.1-0.1 0.2-0.3 0.2 -0.1 0-0.2 0.1-0.2 0.2 0 0.1 0 0.1 0 0.2 0 0 0 0 0 0" class="a"/><path d="M0.5-56.3c0 0.1 0 0.1 0 0.2 -0.1 0.1-0.1 0.1-0.2 0.1 -0.1 0.1-0.1 0.3-0.1 0.4 -0.2 0.1 0 0.2 0 0.3 0 0 0 0.1 0 0.2 0 0.1 0 0.3 0.1 0.4 0.1 0.2 0.3 0.4 0.4 0.5 0.2 0.1 0.4 0.6 0.6 0.6 0.2 0 0.4-0.1 0.5-0.1 0.2 0 0.4 0 0.6-0.1 0.2-0.1 0.1-0.3 0.3-0.5 0.1-0.1 0.3 0 0.4-0.1 0.2-0.1 0.3-0.3 0.4-0.5 0-0.1 0-0.1 0-0.2 0-0.1 0.1-0.2 0.1-0.3 0-0.1-0.1-0.1-0.1-0.2 0-0.1 0-0.2 0-0.3 0-0.2 0-0.4-0.1-0.5 -0.4-0.7-1.2-0.9-2-0.8 -0.2 0-0.3 0.1-0.4 0.2 -0.2 0.1-0.1 0.2-0.3 0.2 -0.1 0-0.2 0.1-0.2 0.2 0 0.1 0 0.1 0 0.2 0 0 0 0 0 0" class="a"/><path d="M69.4-48.7c0 0.1 0 0.1 0 0.2 -0.1 0.1-0.1 0.1-0.2 0.1 -0.1 0.1-0.1 0.3-0.1 0.4C69-48 69.2-47.8 69.2-47.7c0 0 0 0.1 0 0.2 0 0.1 0 0.3 0.1 0.4 0.1 0.2 0.3 0.4 0.4 0.5 0.2 0.1 0.4 0.6 0.6 0.6 0.2 0 0.4-0.1 0.5-0.1 0.2 0 0.4 0 0.6-0.1 0.2-0.1 0.1-0.3 0.3-0.5 0.1-0.1 0.3 0 0.4-0.1 0.2-0.1 0.3-0.3 0.4-0.5 0-0.1 0-0.1 0-0.2 0-0.1 0.1-0.2 0.1-0.3 0-0.1-0.1-0.1-0.1-0.2 0-0.1 0-0.2 0-0.3 0-0.2 0-0.4-0.1-0.5 -0.4-0.7-1.2-0.9-2-0.8 -0.2 0-0.3 0.1-0.4 0.2 -0.2 0.1-0.1 0.2-0.3 0.2 -0.1 0-0.2 0.1-0.2 0.2 0 0.1 0 0.1 0 0.2 0 0 0 0 0 0" class="a"/><path d="M61.8-48.7c0 0.1 0 0.1 0 0.2 -0.1 0.1-0.1 0.1-0.2 0.1 -0.1 0.1-0.1 0.3-0.1 0.4 -0.2 0.1 0 0.2 0 0.3 0 0 0 0.1 0 0.2 0 0.1 0 0.3 0.1 0.4 0.1 0.2 0.3 0.4 0.4 0.5 0.2 0.1 0.4 0.6 0.6 0.6 0.2 0 0.4-0.1 0.5-0.1 0.2 0 0.4 0 0.6-0.1 0.2-0.1 0.1-0.3 0.3-0.5 0.1-0.1 0.3 0 0.4-0.1 0.2-0.1 0.3-0.3 0.4-0.5 0-0.1 0-0.1 0-0.2 0-0.1 0.1-0.2 0.1-0.3 0-0.1-0.1-0.1-0.1-0.2 0-0.1 0-0.2 0-0.3 0-0.2 0-0.4-0.1-0.5 -0.4-0.7-1.2-0.9-2-0.8 -0.2 0-0.3 0.1-0.4 0.2 -0.2 0.1-0.1 0.2-0.3 0.2 -0.1 0-0.2 0.1-0.2 0.2 0 0.1 0 0.1 0 0.2 0 0 0 0 0 0" class="a"/><path d="M54.1-48.7c0 0.1 0 0.1 0 0.2 -0.1 0.1-0.1 0.1-0.2 0.1 -0.1 0.1-0.1 0.3-0.1 0.4 -0.2 0.1 0 0.2 0 0.3 0 0 0 0.1 0 0.2 0 0.1 0 0.3 0.1 0.4 0.1 0.2 0.3 0.4 0.4 0.5 0.2 0.1 0.4 0.6 0.6 0.6 0.2 0 0.4-0.1 0.5-0.1 0.2 0 0.4 0 0.6-0.1 0.2-0.1 0.1-0.3 0.3-0.5 0.1-0.1 0.3 0 0.4-0.1 0.2-0.1 0.3-0.3 0.4-0.5 0-0.1 0-0.1 0-0.2 0-0.1 0.1-0.2 0.1-0.3 0-0.1-0.1-0.1-0.1-0.2 0-0.1 0-0.2 0-0.3 0-0.2 0-0.4-0.1-0.5 -0.4-0.7-1.2-0.9-2-0.8 -0.2 0-0.3 0.1-0.4 0.2 -0.2 0.1-0.1 0.2-0.3 0.2 -0.1 0-0.2 0.1-0.2 0.2 0 0.1 0 0.1 0 0.2 0 0 0 0 0 0" class="a"/><path d="M46.5-48.7c0 0.1 0 0.1 0 0.2 -0.1 0.1-0.1 0.1-0.2 0.1 -0.1 0.1-0.1 0.3-0.1 0.4 -0.2 0.1 0 0.2 0 0.3 0 0 0 0.1 0 0.2 0 0.1 0 0.3 0.1 0.4 0.1 0.2 0.3 0.4 0.4 0.5 0.2 0.1 0.4 0.6 0.6 0.6 0.2 0 0.4-0.1 0.5-0.1 0.2 0 0.4 0 0.6-0.1 0.2-0.1 0.1-0.3 0.3-0.5 0.1-0.1 0.3 0 0.4-0.1 0.2-0.1 0.3-0.3 0.4-0.5 0-0.1 0-0.1 0-0.2 0-0.1 0.1-0.2 0.1-0.3 0-0.1-0.1-0.1-0.1-0.2 0-0.1 0-0.2 0-0.3 0-0.2 0-0.4-0.1-0.5 -0.4-0.7-1.2-0.9-2-0.8 -0.2 0-0.3 0.1-0.4 0.2 -0.2 0.1-0.1 0.2-0.3 0.2 -0.1 0-0.2 0.1-0.2 0.2 0 0.1 0 0.1 0 0.2 0 0 0 0 0 0" class="a"/><path d="M38.8-48.7c0 0.1 0 0.1 0 0.2 -0.1 0.1-0.1 0.1-0.2 0.1 -0.1 0.1-0.1 0.3-0.1 0.4 -0.2 0.1 0 0.2 0 0.3 0 0 0 0.1 0 0.2 0 0.1 0 0.3 0.1 0.4 0.1 0.2 0.3 0.4 0.4 0.5 0.2 0.1 0.4 0.6 0.6 0.6 0.2 0 0.4-0.1 0.5-0.1 0.2 0 0.4 0 0.6-0.1 0.2-0.1 0.1-0.3 0.3-0.5 0.1-0.1 0.3 0 0.4-0.1 0.2-0.1 0.3-0.3 0.4-0.5 0-0.1 0-0.1 0-0.2 0-0.1 0.1-0.2 0.1-0.3 0-0.1-0.1-0.1-0.1-0.2 0-0.1 0-0.2 0-0.3 0-0.2 0-0.4-0.1-0.5 -0.4-0.7-1.2-0.9-2-0.8 -0.2 0-0.3 0.1-0.4 0.2 -0.2 0.1-0.1 0.2-0.3 0.2 -0.1 0-0.2 0.1-0.2 0.2 0 0.1 0 0.1 0 0.2 0 0 0 0 0 0" class="a"/><path d="M31.1-48.7c0 0.1 0 0.1 0 0.2 -0.1 0.1-0.1 0.1-0.2 0.1 -0.1 0.1-0.1 0.3-0.1 0.4 -0.2 0.1 0 0.2 0 0.3 0 0 0 0.1 0 0.2 0 0.1 0 0.3 0.1 0.4 0.1 0.2 0.3 0.4 0.4 0.5 0.2 0.1 0.4 0.6 0.6 0.6 0.2 0 0.4-0.1 0.5-0.1 0.2 0 0.4 0 0.6-0.1 0.2-0.1 0.1-0.3 0.3-0.5 0.1-0.1 0.3 0 0.4-0.1 0.2-0.1 0.3-0.3 0.4-0.5 0-0.1 0-0.1 0-0.2 0-0.1 0.1-0.2 0.1-0.3 0-0.1-0.1-0.1-0.1-0.2 0-0.1 0-0.2 0-0.3 0-0.2 0-0.4-0.1-0.5 -0.4-0.7-1.2-0.9-2-0.8 -0.2 0-0.3 0.1-0.4 0.2 -0.2 0.1-0.1 0.2-0.3 0.2 -0.1 0-0.2 0.1-0.2 0.2 0 0.1 0 0.1 0 0.2 0 0 0 0 0 0" class="a"/><path d="M23.5-48.7c0 0.1 0 0.1 0 0.2 -0.1 0.1-0.1 0.1-0.2 0.1 -0.1 0.1-0.1 0.3-0.1 0.4 -0.2 0.1 0 0.2 0 0.3 0 0 0 0.1 0 0.2 0 0.1 0 0.3 0.1 0.4 0.1 0.2 0.3 0.4 0.4 0.5 0.2 0.1 0.4 0.6 0.6 0.6 0.2 0 0.4-0.1 0.5-0.1 0.2 0 0.4 0 0.6-0.1 0.2-0.1 0.1-0.3 0.3-0.5 0.1-0.1 0.3 0 0.4-0.1 0.2-0.1 0.3-0.3 0.4-0.5 0-0.1 0-0.1 0-0.2 0-0.1 0.1-0.2 0.1-0.3 0-0.1-0.1-0.1-0.1-0.2 0-0.1 0-0.2 0-0.3 0-0.2 0-0.4-0.1-0.5 -0.4-0.7-1.2-0.9-2-0.8 -0.2 0-0.3 0.1-0.4 0.2 -0.2 0.1-0.1 0.2-0.3 0.2 -0.1 0-0.2 0.1-0.2 0.2 0 0.1 0 0.1 0 0.2 0 0 0 0 0 0" class="a"/><path d="M15.8-48.7c0 0.1 0 0.1 0 0.2 -0.1 0.1-0.1 0.1-0.2 0.1 -0.1 0.1-0.1 0.3-0.1 0.4 -0.2 0.1 0 0.2 0 0.3 0 0 0 0.1 0 0.2 0 0.1 0 0.3 0.1 0.4 0.1 0.2 0.3 0.4 0.4 0.5 0.2 0.1 0.4 0.6 0.6 0.6 0.2 0 0.4-0.1 0.5-0.1 0.2 0 0.4 0 0.6-0.1 0.2-0.1 0.1-0.3 0.3-0.5 0.1-0.1 0.3 0 0.4-0.1 0.2-0.1 0.3-0.3 0.4-0.5 0-0.1 0-0.1 0-0.2 0-0.1 0.1-0.2 0.1-0.3 0-0.1-0.1-0.1-0.1-0.2 0-0.1 0-0.2 0-0.3 0-0.2 0-0.4-0.1-0.5 -0.4-0.7-1.2-0.9-2-0.8 -0.2 0-0.3 0.1-0.4 0.2 -0.2 0.1-0.1 0.2-0.3 0.2 -0.1 0-0.2 0.1-0.2 0.2 0 0.1 0 0.1 0 0.2 0 0 0 0 0 0" class="a"/><path d="M8.2-48.7c0 0.1 0 0.1 0 0.2 -0.1 0.1-0.1 0.1-0.2 0.1 -0.1 0.1-0.1 0.3-0.1 0.4 -0.2 0.1 0 0.2 0 0.3 0 0 0 0.1 0 0.2 0 0.1 0 0.3 0.1 0.4 0.1 0.2 0.3 0.4 0.4 0.5 0.2 0.1 0.4 0.6 0.6 0.6 0.2 0 0.4-0.1 0.5-0.1 0.2 0 0.4 0 0.6-0.1 0.2-0.1 0.1-0.3 0.3-0.5 0.1-0.1 0.3 0 0.4-0.1 0.2-0.1 0.3-0.3 0.4-0.5 0-0.1 0-0.1 0-0.2 0-0.1 0.1-0.2 0.1-0.3 0-0.1-0.1-0.1-0.1-0.2 0-0.1 0-0.2 0-0.3 0-0.2 0-0.4-0.1-0.5 -0.4-0.7-1.2-0.9-2-0.8 -0.2 0-0.3 0.1-0.4 0.2 -0.2 0.1-0.1 0.2-0.3 0.2 -0.1 0-0.2 0.1-0.2 0.2 0 0.1 0 0.1 0 0.2 0 0 0 0 0 0" class="a"/><path d="M0.5-48.7c0 0.1 0 0.1 0 0.2 -0.1 0.1-0.1 0.1-0.2 0.1 -0.1 0.1-0.1 0.3-0.1 0.4C0.1-48 0.2-47.8 0.2-47.7c0 0 0 0.1 0 0.2 0 0.1 0 0.3 0.1 0.4 0.1 0.2 0.3 0.4 0.4 0.5 0.2 0.1 0.4 0.6 0.6 0.6 0.2 0 0.4-0.1 0.5-0.1 0.2 0 0.4 0 0.6-0.1 0.2-0.1 0.1-0.3 0.3-0.5 0.1-0.1 0.3 0 0.4-0.1 0.2-0.1 0.3-0.3 0.4-0.5 0-0.1 0-0.1 0-0.2 0-0.1 0.1-0.2 0.1-0.3 0-0.1-0.1-0.1-0.1-0.2 0-0.1 0-0.2 0-0.3 0-0.2 0-0.4-0.1-0.5 -0.4-0.7-1.2-0.9-2-0.8 -0.2 0-0.3 0.1-0.4 0.2 -0.2 0.1-0.1 0.2-0.3 0.2 -0.1 0-0.2 0.1-0.2 0.2 0 0.1 0 0.1 0 0.2 0 0 0 0 0 0" class="a"/><path d="M69.4-41c0 0.1 0 0.1 0 0.2 -0.1 0.1-0.1 0.1-0.2 0.1 -0.1 0.1-0.1 0.3-0.1 0.4 -0.2 0.1 0 0.2 0 0.3 0 0 0 0.1 0 0.2 0 0.1 0 0.3 0.1 0.4 0.1 0.2 0.3 0.4 0.4 0.5 0.2 0.1 0.4 0.6 0.6 0.6 0.2 0 0.4-0.1 0.5-0.1 0.2 0 0.4 0 0.6-0.1 0.2-0.1 0.1-0.3 0.3-0.5 0.1-0.1 0.3 0 0.4-0.1 0.2-0.1 0.3-0.3 0.4-0.5 0-0.1 0-0.1 0-0.2 0-0.1 0.1-0.2 0.1-0.3 0-0.1-0.1-0.1-0.1-0.2 0-0.1 0-0.2 0-0.3 0-0.2 0-0.4-0.1-0.5 -0.4-0.7-1.2-0.9-2-0.8 -0.2 0-0.3 0.1-0.4 0.2 -0.2 0.1-0.1 0.2-0.3 0.2 -0.1 0-0.2 0.1-0.2 0.2 0 0.1 0 0.1 0 0.2 0 0 0 0 0 0" class="a"/><path d="M61.8-41c0 0.1 0 0.1 0 0.2 -0.1 0.1-0.1 0.1-0.2 0.1 -0.1 0.1-0.1 0.3-0.1 0.4 -0.2 0.1 0 0.2 0 0.3 0 0 0 0.1 0 0.2 0 0.1 0 0.3 0.1 0.4 0.1 0.2 0.3 0.4 0.4 0.5 0.2 0.1 0.4 0.6 0.6 0.6 0.2 0 0.4-0.1 0.5-0.1 0.2 0 0.4 0 0.6-0.1 0.2-0.1 0.1-0.3 0.3-0.5 0.1-0.1 0.3 0 0.4-0.1 0.2-0.1 0.3-0.3 0.4-0.5 0-0.1 0-0.1 0-0.2 0-0.1 0.1-0.2 0.1-0.3 0-0.1-0.1-0.1-0.1-0.2 0-0.1 0-0.2 0-0.3 0-0.2 0-0.4-0.1-0.5 -0.4-0.7-1.2-0.9-2-0.8 -0.2 0-0.3 0.1-0.4 0.2 -0.2 0.1-0.1 0.2-0.3 0.2 -0.1 0-0.2 0.1-0.2 0.2 0 0.1 0 0.1 0 0.2 0 0 0 0 0 0" class="a"/><path d="M54.1-41c0 0.1 0 0.1 0 0.2 -0.1 0.1-0.1 0.1-0.2 0.1 -0.1 0.1-0.1 0.3-0.1 0.4 -0.2 0.1 0 0.2 0 0.3 0 0 0 0.1 0 0.2 0 0.1 0 0.3 0.1 0.4 0.1 0.2 0.3 0.4 0.4 0.5 0.2 0.1 0.4 0.6 0.6 0.6 0.2 0 0.4-0.1 0.5-0.1 0.2 0 0.4 0 0.6-0.1 0.2-0.1 0.1-0.3 0.3-0.5 0.1-0.1 0.3 0 0.4-0.1 0.2-0.1 0.3-0.3 0.4-0.5 0-0.1 0-0.1 0-0.2 0-0.1 0.1-0.2 0.1-0.3 0-0.1-0.1-0.1-0.1-0.2 0-0.1 0-0.2 0-0.3 0-0.2 0-0.4-0.1-0.5 -0.4-0.7-1.2-0.9-2-0.8 -0.2 0-0.3 0.1-0.4 0.2 -0.2 0.1-0.1 0.2-0.3 0.2 -0.1 0-0.2 0.1-0.2 0.2 0 0.1 0 0.1 0 0.2 0 0 0 0 0 0" class="a"/><path d="M46.5-41c0 0.1 0 0.1 0 0.2 -0.1 0.1-0.1 0.1-0.2 0.1 -0.1 0.1-0.1 0.3-0.1 0.4 -0.2 0.1 0 0.2 0 0.3 0 0 0 0.1 0 0.2 0 0.1 0 0.3 0.1 0.4 0.1 0.2 0.3 0.4 0.4 0.5 0.2 0.1 0.4 0.6 0.6 0.6 0.2 0 0.4-0.1 0.5-0.1 0.2 0 0.4 0 0.6-0.1 0.2-0.1 0.1-0.3 0.3-0.5 0.1-0.1 0.3 0 0.4-0.1 0.2-0.1 0.3-0.3 0.4-0.5 0-0.1 0-0.1 0-0.2 0-0.1 0.1-0.2 0.1-0.3 0-0.1-0.1-0.1-0.1-0.2 0-0.1 0-0.2 0-0.3 0-0.2 0-0.4-0.1-0.5 -0.4-0.7-1.2-0.9-2-0.8 -0.2 0-0.3 0.1-0.4 0.2 -0.2 0.1-0.1 0.2-0.3 0.2 -0.1 0-0.2 0.1-0.2 0.2 0 0.1 0 0.1 0 0.2 0 0 0 0 0 0" class="a"/><path d="M38.8-41c0 0.1 0 0.1 0 0.2 -0.1 0.1-0.1 0.1-0.2 0.1 -0.1 0.1-0.1 0.3-0.1 0.4 -0.2 0.1 0 0.2 0 0.3 0 0 0 0.1 0 0.2 0 0.1 0 0.3 0.1 0.4 0.1 0.2 0.3 0.4 0.4 0.5 0.2 0.1 0.4 0.6 0.6 0.6 0.2 0 0.4-0.1 0.5-0.1 0.2 0 0.4 0 0.6-0.1 0.2-0.1 0.1-0.3 0.3-0.5 0.1-0.1 0.3 0 0.4-0.1 0.2-0.1 0.3-0.3 0.4-0.5 0-0.1 0-0.1 0-0.2 0-0.1 0.1-0.2 0.1-0.3 0-0.1-0.1-0.1-0.1-0.2 0-0.1 0-0.2 0-0.3 0-0.2 0-0.4-0.1-0.5 -0.4-0.7-1.2-0.9-2-0.8 -0.2 0-0.3 0.1-0.4 0.2 -0.2 0.1-0.1 0.2-0.3 0.2 -0.1 0-0.2 0.1-0.2 0.2 0 0.1 0 0.1 0 0.2 0 0 0 0 0 0" class="a"/><path d="M31.1-41c0 0.1 0 0.1 0 0.2 -0.1 0.1-0.1 0.1-0.2 0.1 -0.1 0.1-0.1 0.3-0.1 0.4 -0.2 0.1 0 0.2 0 0.3 0 0 0 0.1 0 0.2 0 0.1 0 0.3 0.1 0.4 0.1 0.2 0.3 0.4 0.4 0.5 0.2 0.1 0.4 0.6 0.6 0.6 0.2 0 0.4-0.1 0.5-0.1 0.2 0 0.4 0 0.6-0.1 0.2-0.1 0.1-0.3 0.3-0.5 0.1-0.1 0.3 0 0.4-0.1 0.2-0.1 0.3-0.3 0.4-0.5 0-0.1 0-0.1 0-0.2 0-0.1 0.1-0.2 0.1-0.3 0-0.1-0.1-0.1-0.1-0.2 0-0.1 0-0.2 0-0.3 0-0.2 0-0.4-0.1-0.5 -0.4-0.7-1.2-0.9-2-0.8 -0.2 0-0.3 0.1-0.4 0.2 -0.2 0.1-0.1 0.2-0.3 0.2 -0.1 0-0.2 0.1-0.2 0.2 0 0.1 0 0.1 0 0.2 0 0 0 0 0 0" class="a"/><path d="M23.5-41c0 0.1 0 0.1 0 0.2 -0.1 0.1-0.1 0.1-0.2 0.1 -0.1 0.1-0.1 0.3-0.1 0.4 -0.2 0.1 0 0.2 0 0.3 0 0 0 0.1 0 0.2 0 0.1 0 0.3 0.1 0.4 0.1 0.2 0.3 0.4 0.4 0.5 0.2 0.1 0.4 0.6 0.6 0.6 0.2 0 0.4-0.1 0.5-0.1 0.2 0 0.4 0 0.6-0.1 0.2-0.1 0.1-0.3 0.3-0.5 0.1-0.1 0.3 0 0.4-0.1 0.2-0.1 0.3-0.3 0.4-0.5 0-0.1 0-0.1 0-0.2 0-0.1 0.1-0.2 0.1-0.3 0-0.1-0.1-0.1-0.1-0.2 0-0.1 0-0.2 0-0.3 0-0.2 0-0.4-0.1-0.5 -0.4-0.7-1.2-0.9-2-0.8 -0.2 0-0.3 0.1-0.4 0.2 -0.2 0.1-0.1 0.2-0.3 0.2 -0.1 0-0.2 0.1-0.2 0.2 0 0.1 0 0.1 0 0.2 0 0 0 0 0 0" class="a"/><path d="M15.8-41c0 0.1 0 0.1 0 0.2 -0.1 0.1-0.1 0.1-0.2 0.1 -0.1 0.1-0.1 0.3-0.1 0.4 -0.2 0.1 0 0.2 0 0.3 0 0 0 0.1 0 0.2 0 0.1 0 0.3 0.1 0.4 0.1 0.2 0.3 0.4 0.4 0.5 0.2 0.1 0.4 0.6 0.6 0.6 0.2 0 0.4-0.1 0.5-0.1 0.2 0 0.4 0 0.6-0.1 0.2-0.1 0.1-0.3 0.3-0.5 0.1-0.1 0.3 0 0.4-0.1 0.2-0.1 0.3-0.3 0.4-0.5 0-0.1 0-0.1 0-0.2 0-0.1 0.1-0.2 0.1-0.3 0-0.1-0.1-0.1-0.1-0.2 0-0.1 0-0.2 0-0.3 0-0.2 0-0.4-0.1-0.5 -0.4-0.7-1.2-0.9-2-0.8 -0.2 0-0.3 0.1-0.4 0.2 -0.2 0.1-0.1 0.2-0.3 0.2 -0.1 0-0.2 0.1-0.2 0.2 0 0.1 0 0.1 0 0.2 0 0 0 0 0 0" class="a"/><path d="M8.2-41c0 0.1 0 0.1 0 0.2 -0.1 0.1-0.1 0.1-0.2 0.1 -0.1 0.1-0.1 0.3-0.1 0.4 -0.2 0.1 0 0.2 0 0.3 0 0 0 0.1 0 0.2 0 0.1 0 0.3 0.1 0.4 0.1 0.2 0.3 0.4 0.4 0.5 0.2 0.1 0.4 0.6 0.6 0.6 0.2 0 0.4-0.1 0.5-0.1 0.2 0 0.4 0 0.6-0.1 0.2-0.1 0.1-0.3 0.3-0.5 0.1-0.1 0.3 0 0.4-0.1 0.2-0.1 0.3-0.3 0.4-0.5 0-0.1 0-0.1 0-0.2 0-0.1 0.1-0.2 0.1-0.3 0-0.1-0.1-0.1-0.1-0.2 0-0.1 0-0.2 0-0.3 0-0.2 0-0.4-0.1-0.5 -0.4-0.7-1.2-0.9-2-0.8 -0.2 0-0.3 0.1-0.4 0.2 -0.2 0.1-0.1 0.2-0.3 0.2 -0.1 0-0.2 0.1-0.2 0.2 0 0.1 0 0.1 0 0.2 0 0 0 0 0 0" class="a"/><path d="M0.5-41c0 0.1 0 0.1 0 0.2 -0.1 0.1-0.1 0.1-0.2 0.1 -0.1 0.1-0.1 0.3-0.1 0.4 -0.2 0.1 0 0.2 0 0.3 0 0 0 0.1 0 0.2 0 0.1 0 0.3 0.1 0.4 0.1 0.2 0.3 0.4 0.4 0.5 0.2 0.1 0.4 0.6 0.6 0.6 0.2 0 0.4-0.1 0.5-0.1 0.2 0 0.4 0 0.6-0.1 0.2-0.1 0.1-0.3 0.3-0.5 0.1-0.1 0.3 0 0.4-0.1 0.2-0.1 0.3-0.3 0.4-0.5 0-0.1 0-0.1 0-0.2 0-0.1 0.1-0.2 0.1-0.3 0-0.1-0.1-0.1-0.1-0.2 0-0.1 0-0.2 0-0.3 0-0.2 0-0.4-0.1-0.5 -0.4-0.7-1.2-0.9-2-0.8 -0.2 0-0.3 0.1-0.4 0.2 -0.2 0.1-0.1 0.2-0.3 0.2 -0.1 0-0.2 0.1-0.2 0.2 0 0.1 0 0.1 0 0.2 0 0 0 0 0 0" class="a"/><path d="M69.4-33.4c0 0.1 0 0.1 0 0.2 -0.1 0.1-0.1 0.1-0.2 0.1 -0.1 0.1-0.1 0.3-0.1 0.4 -0.2 0.1 0 0.2 0 0.3 0 0 0 0.1 0 0.2 0 0.1 0 0.3 0.1 0.4 0.1 0.2 0.3 0.4 0.4 0.5 0.2 0.1 0.4 0.6 0.6 0.6 0.2 0 0.4-0.1 0.5-0.1 0.2 0 0.4 0 0.6-0.1 0.2-0.1 0.1-0.3 0.3-0.5 0.1-0.1 0.3 0 0.4-0.1 0.2-0.1 0.3-0.3 0.4-0.5 0-0.1 0-0.1 0-0.2 0-0.1 0.1-0.2 0.1-0.3 0-0.1-0.1-0.1-0.1-0.2 0-0.1 0-0.2 0-0.3 0-0.2 0-0.4-0.1-0.5 -0.4-0.7-1.2-0.9-2-0.8 -0.2 0-0.3 0.1-0.4 0.2 -0.2 0.1-0.1 0.2-0.3 0.2 -0.1 0-0.2 0.1-0.2 0.2 0 0.1 0 0.1 0 0.2 0 0 0 0 0 0" class="a"/><path d="M61.8-33.4c0 0.1 0 0.1 0 0.2 -0.1 0.1-0.1 0.1-0.2 0.1 -0.1 0.1-0.1 0.3-0.1 0.4 -0.2 0.1 0 0.2 0 0.3 0 0 0 0.1 0 0.2 0 0.1 0 0.3 0.1 0.4 0.1 0.2 0.3 0.4 0.4 0.5 0.2 0.1 0.4 0.6 0.6 0.6 0.2 0 0.4-0.1 0.5-0.1 0.2 0 0.4 0 0.6-0.1 0.2-0.1 0.1-0.3 0.3-0.5 0.1-0.1 0.3 0 0.4-0.1 0.2-0.1 0.3-0.3 0.4-0.5 0-0.1 0-0.1 0-0.2 0-0.1 0.1-0.2 0.1-0.3 0-0.1-0.1-0.1-0.1-0.2 0-0.1 0-0.2 0-0.3 0-0.2 0-0.4-0.1-0.5 -0.4-0.7-1.2-0.9-2-0.8 -0.2 0-0.3 0.1-0.4 0.2 -0.2 0.1-0.1 0.2-0.3 0.2 -0.1 0-0.2 0.1-0.2 0.2 0 0.1 0 0.1 0 0.2 0 0 0 0 0 0" class="a"/><path d="M54.1-33.4c0 0.1 0 0.1 0 0.2 -0.1 0.1-0.1 0.1-0.2 0.1 -0.1 0.1-0.1 0.3-0.1 0.4 -0.2 0.1 0 0.2 0 0.3 0 0 0 0.1 0 0.2 0 0.1 0 0.3 0.1 0.4 0.1 0.2 0.3 0.4 0.4 0.5 0.2 0.1 0.4 0.6 0.6 0.6 0.2 0 0.4-0.1 0.5-0.1 0.2 0 0.4 0 0.6-0.1 0.2-0.1 0.1-0.3 0.3-0.5 0.1-0.1 0.3 0 0.4-0.1 0.2-0.1 0.3-0.3 0.4-0.5 0-0.1 0-0.1 0-0.2 0-0.1 0.1-0.2 0.1-0.3 0-0.1-0.1-0.1-0.1-0.2 0-0.1 0-0.2 0-0.3 0-0.2 0-0.4-0.1-0.5 -0.4-0.7-1.2-0.9-2-0.8 -0.2 0-0.3 0.1-0.4 0.2 -0.2 0.1-0.1 0.2-0.3 0.2 -0.1 0-0.2 0.1-0.2 0.2 0 0.1 0 0.1 0 0.2 0 0 0 0 0 0" class="a"/><path d="M46.5-33.4c0 0.1 0 0.1 0 0.2 -0.1 0.1-0.1 0.1-0.2 0.1 -0.1 0.1-0.1 0.3-0.1 0.4 -0.2 0.1 0 0.2 0 0.3 0 0 0 0.1 0 0.2 0 0.1 0 0.3 0.1 0.4 0.1 0.2 0.3 0.4 0.4 0.5 0.2 0.1 0.4 0.6 0.6 0.6 0.2 0 0.4-0.1 0.5-0.1 0.2 0 0.4 0 0.6-0.1 0.2-0.1 0.1-0.3 0.3-0.5 0.1-0.1 0.3 0 0.4-0.1 0.2-0.1 0.3-0.3 0.4-0.5 0-0.1 0-0.1 0-0.2 0-0.1 0.1-0.2 0.1-0.3 0-0.1-0.1-0.1-0.1-0.2 0-0.1 0-0.2 0-0.3 0-0.2 0-0.4-0.1-0.5 -0.4-0.7-1.2-0.9-2-0.8 -0.2 0-0.3 0.1-0.4 0.2 -0.2 0.1-0.1 0.2-0.3 0.2 -0.1 0-0.2 0.1-0.2 0.2 0 0.1 0 0.1 0 0.2 0 0 0 0 0 0" class="a"/><path d="M38.8-33.4c0 0.1 0 0.1 0 0.2 -0.1 0.1-0.1 0.1-0.2 0.1 -0.1 0.1-0.1 0.3-0.1 0.4 -0.2 0.1 0 0.2 0 0.3 0 0 0 0.1 0 0.2 0 0.1 0 0.3 0.1 0.4 0.1 0.2 0.3 0.4 0.4 0.5 0.2 0.1 0.4 0.6 0.6 0.6 0.2 0 0.4-0.1 0.5-0.1 0.2 0 0.4 0 0.6-0.1 0.2-0.1 0.1-0.3 0.3-0.5 0.1-0.1 0.3 0 0.4-0.1 0.2-0.1 0.3-0.3 0.4-0.5 0-0.1 0-0.1 0-0.2 0-0.1 0.1-0.2 0.1-0.3 0-0.1-0.1-0.1-0.1-0.2 0-0.1 0-0.2 0-0.3 0-0.2 0-0.4-0.1-0.5 -0.4-0.7-1.2-0.9-2-0.8 -0.2 0-0.3 0.1-0.4 0.2 -0.2 0.1-0.1 0.2-0.3 0.2 -0.1 0-0.2 0.1-0.2 0.2 0 0.1 0 0.1 0 0.2 0 0 0 0 0 0" class="a"/><path d="M31.1-33.4c0 0.1 0 0.1 0 0.2 -0.1 0.1-0.1 0.1-0.2 0.1 -0.1 0.1-0.1 0.3-0.1 0.4 -0.2 0.1 0 0.2 0 0.3 0 0 0 0.1 0 0.2 0 0.1 0 0.3 0.1 0.4 0.1 0.2 0.3 0.4 0.4 0.5 0.2 0.1 0.4 0.6 0.6 0.6 0.2 0 0.4-0.1 0.5-0.1 0.2 0 0.4 0 0.6-0.1 0.2-0.1 0.1-0.3 0.3-0.5 0.1-0.1 0.3 0 0.4-0.1 0.2-0.1 0.3-0.3 0.4-0.5 0-0.1 0-0.1 0-0.2 0-0.1 0.1-0.2 0.1-0.3 0-0.1-0.1-0.1-0.1-0.2 0-0.1 0-0.2 0-0.3 0-0.2 0-0.4-0.1-0.5 -0.4-0.7-1.2-0.9-2-0.8 -0.2 0-0.3 0.1-0.4 0.2 -0.2 0.1-0.1 0.2-0.3 0.2 -0.1 0-0.2 0.1-0.2 0.2 0 0.1 0 0.1 0 0.2 0 0 0 0 0 0" class="a"/><path d="M23.5-33.4c0 0.1 0 0.1 0 0.2 -0.1 0.1-0.1 0.1-0.2 0.1 -0.1 0.1-0.1 0.3-0.1 0.4 -0.2 0.1 0 0.2 0 0.3 0 0 0 0.1 0 0.2 0 0.1 0 0.3 0.1 0.4 0.1 0.2 0.3 0.4 0.4 0.5 0.2 0.1 0.4 0.6 0.6 0.6 0.2 0 0.4-0.1 0.5-0.1 0.2 0 0.4 0 0.6-0.1 0.2-0.1 0.1-0.3 0.3-0.5 0.1-0.1 0.3 0 0.4-0.1 0.2-0.1 0.3-0.3 0.4-0.5 0-0.1 0-0.1 0-0.2 0-0.1 0.1-0.2 0.1-0.3 0-0.1-0.1-0.1-0.1-0.2 0-0.1 0-0.2 0-0.3 0-0.2 0-0.4-0.1-0.5 -0.4-0.7-1.2-0.9-2-0.8 -0.2 0-0.3 0.1-0.4 0.2 -0.2 0.1-0.1 0.2-0.3 0.2 -0.1 0-0.2 0.1-0.2 0.2 0 0.1 0 0.1 0 0.2 0 0 0 0 0 0" class="a"/><path d="M15.8-33.4c0 0.1 0 0.1 0 0.2 -0.1 0.1-0.1 0.1-0.2 0.1 -0.1 0.1-0.1 0.3-0.1 0.4 -0.2 0.1 0 0.2 0 0.3 0 0 0 0.1 0 0.2 0 0.1 0 0.3 0.1 0.4 0.1 0.2 0.3 0.4 0.4 0.5 0.2 0.1 0.4 0.6 0.6 0.6 0.2 0 0.4-0.1 0.5-0.1 0.2 0 0.4 0 0.6-0.1 0.2-0.1 0.1-0.3 0.3-0.5 0.1-0.1 0.3 0 0.4-0.1 0.2-0.1 0.3-0.3 0.4-0.5 0-0.1 0-0.1 0-0.2 0-0.1 0.1-0.2 0.1-0.3 0-0.1-0.1-0.1-0.1-0.2 0-0.1 0-0.2 0-0.3 0-0.2 0-0.4-0.1-0.5 -0.4-0.7-1.2-0.9-2-0.8 -0.2 0-0.3 0.1-0.4 0.2 -0.2 0.1-0.1 0.2-0.3 0.2 -0.1 0-0.2 0.1-0.2 0.2 0 0.1 0 0.1 0 0.2 0 0 0 0 0 0" class="a"/><path d="M8.2-33.4c0 0.1 0 0.1 0 0.2 -0.1 0.1-0.1 0.1-0.2 0.1 -0.1 0.1-0.1 0.3-0.1 0.4 -0.2 0.1 0 0.2 0 0.3 0 0 0 0.1 0 0.2 0 0.1 0 0.3 0.1 0.4 0.1 0.2 0.3 0.4 0.4 0.5 0.2 0.1 0.4 0.6 0.6 0.6 0.2 0 0.4-0.1 0.5-0.1 0.2 0 0.4 0 0.6-0.1 0.2-0.1 0.1-0.3 0.3-0.5 0.1-0.1 0.3 0 0.4-0.1 0.2-0.1 0.3-0.3 0.4-0.5 0-0.1 0-0.1 0-0.2 0-0.1 0.1-0.2 0.1-0.3 0-0.1-0.1-0.1-0.1-0.2 0-0.1 0-0.2 0-0.3 0-0.2 0-0.4-0.1-0.5 -0.4-0.7-1.2-0.9-2-0.8 -0.2 0-0.3 0.1-0.4 0.2 -0.2 0.1-0.1 0.2-0.3 0.2 -0.1 0-0.2 0.1-0.2 0.2 0 0.1 0 0.1 0 0.2 0 0 0 0 0 0" class="a"/><path d="M0.5-33.4c0 0.1 0 0.1 0 0.2 -0.1 0.1-0.1 0.1-0.2 0.1 -0.1 0.1-0.1 0.3-0.1 0.4 -0.2 0.1 0 0.2 0 0.3 0 0 0 0.1 0 0.2 0 0.1 0 0.3 0.1 0.4 0.1 0.2 0.3 0.4 0.4 0.5 0.2 0.1 0.4 0.6 0.6 0.6 0.2 0 0.4-0.1 0.5-0.1 0.2 0 0.4 0 0.6-0.1 0.2-0.1 0.1-0.3 0.3-0.5 0.1-0.1 0.3 0 0.4-0.1 0.2-0.1 0.3-0.3 0.4-0.5 0-0.1 0-0.1 0-0.2 0-0.1 0.1-0.2 0.1-0.3 0-0.1-0.1-0.1-0.1-0.2 0-0.1 0-0.2 0-0.3 0-0.2 0-0.4-0.1-0.5 -0.4-0.7-1.2-0.9-2-0.8 -0.2 0-0.3 0.1-0.4 0.2 -0.2 0.1-0.1 0.2-0.3 0.2 -0.1 0-0.2 0.1-0.2 0.2 0 0.1 0 0.1 0 0.2 0 0 0 0 0 0" class="a"/><path d="M69.4-25.7c0 0.1 0 0.1 0 0.2 -0.1 0.1-0.1 0.1-0.2 0.1 -0.1 0.1-0.1 0.3-0.1 0.4C69-25 69.2-24.8 69.2-24.7c0 0 0 0.1 0 0.2 0 0.1 0 0.3 0.1 0.4 0.1 0.2 0.3 0.4 0.4 0.5 0.2 0.1 0.4 0.6 0.6 0.6 0.2 0 0.4-0.1 0.5-0.1 0.2 0 0.4 0 0.6-0.1 0.2-0.1 0.1-0.3 0.3-0.5 0.1-0.1 0.3 0 0.4-0.1 0.2-0.1 0.3-0.3 0.4-0.5 0-0.1 0-0.1 0-0.2 0-0.1 0.1-0.2 0.1-0.3 0-0.1-0.1-0.1-0.1-0.2 0-0.1 0-0.2 0-0.3 0-0.2 0-0.4-0.1-0.5 -0.4-0.7-1.2-0.9-2-0.8 -0.2 0-0.3 0.1-0.4 0.2 -0.2 0.1-0.1 0.2-0.3 0.2 -0.1 0-0.2 0.1-0.2 0.2 0 0.1 0 0.1 0 0.2 0 0 0 0 0 0" class="a"/><path d="M61.8-25.7c0 0.1 0 0.1 0 0.2 -0.1 0.1-0.1 0.1-0.2 0.1 -0.1 0.1-0.1 0.3-0.1 0.4 -0.2 0.1 0 0.2 0 0.3 0 0 0 0.1 0 0.2 0 0.1 0 0.3 0.1 0.4 0.1 0.2 0.3 0.4 0.4 0.5 0.2 0.1 0.4 0.6 0.6 0.6 0.2 0 0.4-0.1 0.5-0.1 0.2 0 0.4 0 0.6-0.1 0.2-0.1 0.1-0.3 0.3-0.5 0.1-0.1 0.3 0 0.4-0.1 0.2-0.1 0.3-0.3 0.4-0.5 0-0.1 0-0.1 0-0.2 0-0.1 0.1-0.2 0.1-0.3 0-0.1-0.1-0.1-0.1-0.2 0-0.1 0-0.2 0-0.3 0-0.2 0-0.4-0.1-0.5 -0.4-0.7-1.2-0.9-2-0.8 -0.2 0-0.3 0.1-0.4 0.2 -0.2 0.1-0.1 0.2-0.3 0.2 -0.1 0-0.2 0.1-0.2 0.2 0 0.1 0 0.1 0 0.2 0 0 0 0 0 0" class="a"/><path d="M54.1-25.7c0 0.1 0 0.1 0 0.2 -0.1 0.1-0.1 0.1-0.2 0.1 -0.1 0.1-0.1 0.3-0.1 0.4 -0.2 0.1 0 0.2 0 0.3 0 0 0 0.1 0 0.2 0 0.1 0 0.3 0.1 0.4 0.1 0.2 0.3 0.4 0.4 0.5 0.2 0.1 0.4 0.6 0.6 0.6 0.2 0 0.4-0.1 0.5-0.1 0.2 0 0.4 0 0.6-0.1 0.2-0.1 0.1-0.3 0.3-0.5 0.1-0.1 0.3 0 0.4-0.1 0.2-0.1 0.3-0.3 0.4-0.5 0-0.1 0-0.1 0-0.2 0-0.1 0.1-0.2 0.1-0.3 0-0.1-0.1-0.1-0.1-0.2 0-0.1 0-0.2 0-0.3 0-0.2 0-0.4-0.1-0.5 -0.4-0.7-1.2-0.9-2-0.8 -0.2 0-0.3 0.1-0.4 0.2 -0.2 0.1-0.1 0.2-0.3 0.2 -0.1 0-0.2 0.1-0.2 0.2 0 0.1 0 0.1 0 0.2 0 0 0 0 0 0" class="a"/><path d="M46.5-25.7c0 0.1 0 0.1 0 0.2 -0.1 0.1-0.1 0.1-0.2 0.1 -0.1 0.1-0.1 0.3-0.1 0.4 -0.2 0.1 0 0.2 0 0.3 0 0 0 0.1 0 0.2 0 0.1 0 0.3 0.1 0.4 0.1 0.2 0.3 0.4 0.4 0.5 0.2 0.1 0.4 0.6 0.6 0.6 0.2 0 0.4-0.1 0.5-0.1 0.2 0 0.4 0 0.6-0.1 0.2-0.1 0.1-0.3 0.3-0.5 0.1-0.1 0.3 0 0.4-0.1 0.2-0.1 0.3-0.3 0.4-0.5 0-0.1 0-0.1 0-0.2 0-0.1 0.1-0.2 0.1-0.3 0-0.1-0.1-0.1-0.1-0.2 0-0.1 0-0.2 0-0.3 0-0.2 0-0.4-0.1-0.5 -0.4-0.7-1.2-0.9-2-0.8 -0.2 0-0.3 0.1-0.4 0.2 -0.2 0.1-0.1 0.2-0.3 0.2 -0.1 0-0.2 0.1-0.2 0.2 0 0.1 0 0.1 0 0.2 0 0 0 0 0 0" class="a"/><path d="M38.8-25.7c0 0.1 0 0.1 0 0.2 -0.1 0.1-0.1 0.1-0.2 0.1 -0.1 0.1-0.1 0.3-0.1 0.4 -0.2 0.1 0 0.2 0 0.3 0 0 0 0.1 0 0.2 0 0.1 0 0.3 0.1 0.4 0.1 0.2 0.3 0.4 0.4 0.5 0.2 0.1 0.4 0.6 0.6 0.6 0.2 0 0.4-0.1 0.5-0.1 0.2 0 0.4 0 0.6-0.1 0.2-0.1 0.1-0.3 0.3-0.5 0.1-0.1 0.3 0 0.4-0.1 0.2-0.1 0.3-0.3 0.4-0.5 0-0.1 0-0.1 0-0.2 0-0.1 0.1-0.2 0.1-0.3 0-0.1-0.1-0.1-0.1-0.2 0-0.1 0-0.2 0-0.3 0-0.2 0-0.4-0.1-0.5 -0.4-0.7-1.2-0.9-2-0.8 -0.2 0-0.3 0.1-0.4 0.2 -0.2 0.1-0.1 0.2-0.3 0.2 -0.1 0-0.2 0.1-0.2 0.2 0 0.1 0 0.1 0 0.2 0 0 0 0 0 0" class="a"/><path d="M31.1-25.7c0 0.1 0 0.1 0 0.2 -0.1 0.1-0.1 0.1-0.2 0.1 -0.1 0.1-0.1 0.3-0.1 0.4 -0.2 0.1 0 0.2 0 0.3 0 0 0 0.1 0 0.2 0 0.1 0 0.3 0.1 0.4 0.1 0.2 0.3 0.4 0.4 0.5 0.2 0.1 0.4 0.6 0.6 0.6 0.2 0 0.4-0.1 0.5-0.1 0.2 0 0.4 0 0.6-0.1 0.2-0.1 0.1-0.3 0.3-0.5 0.1-0.1 0.3 0 0.4-0.1 0.2-0.1 0.3-0.3 0.4-0.5 0-0.1 0-0.1 0-0.2 0-0.1 0.1-0.2 0.1-0.3 0-0.1-0.1-0.1-0.1-0.2 0-0.1 0-0.2 0-0.3 0-0.2 0-0.4-0.1-0.5 -0.4-0.7-1.2-0.9-2-0.8 -0.2 0-0.3 0.1-0.4 0.2 -0.2 0.1-0.1 0.2-0.3 0.2 -0.1 0-0.2 0.1-0.2 0.2 0 0.1 0 0.1 0 0.2 0 0 0 0 0 0" class="a"/><path d="M23.5-25.7c0 0.1 0 0.1 0 0.2 -0.1 0.1-0.1 0.1-0.2 0.1 -0.1 0.1-0.1 0.3-0.1 0.4 -0.2 0.1 0 0.2 0 0.3 0 0 0 0.1 0 0.2 0 0.1 0 0.3 0.1 0.4 0.1 0.2 0.3 0.4 0.4 0.5 0.2 0.1 0.4 0.6 0.6 0.6 0.2 0 0.4-0.1 0.5-0.1 0.2 0 0.4 0 0.6-0.1 0.2-0.1 0.1-0.3 0.3-0.5 0.1-0.1 0.3 0 0.4-0.1 0.2-0.1 0.3-0.3 0.4-0.5 0-0.1 0-0.1 0-0.2 0-0.1 0.1-0.2 0.1-0.3 0-0.1-0.1-0.1-0.1-0.2 0-0.1 0-0.2 0-0.3 0-0.2 0-0.4-0.1-0.5 -0.4-0.7-1.2-0.9-2-0.8 -0.2 0-0.3 0.1-0.4 0.2 -0.2 0.1-0.1 0.2-0.3 0.2 -0.1 0-0.2 0.1-0.2 0.2 0 0.1 0 0.1 0 0.2 0 0 0 0 0 0" class="a"/><path d="M15.8-25.7c0 0.1 0 0.1 0 0.2 -0.1 0.1-0.1 0.1-0.2 0.1 -0.1 0.1-0.1 0.3-0.1 0.4 -0.2 0.1 0 0.2 0 0.3 0 0 0 0.1 0 0.2 0 0.1 0 0.3 0.1 0.4 0.1 0.2 0.3 0.4 0.4 0.5 0.2 0.1 0.4 0.6 0.6 0.6 0.2 0 0.4-0.1 0.5-0.1 0.2 0 0.4 0 0.6-0.1 0.2-0.1 0.1-0.3 0.3-0.5 0.1-0.1 0.3 0 0.4-0.1 0.2-0.1 0.3-0.3 0.4-0.5 0-0.1 0-0.1 0-0.2 0-0.1 0.1-0.2 0.1-0.3 0-0.1-0.1-0.1-0.1-0.2 0-0.1 0-0.2 0-0.3 0-0.2 0-0.4-0.1-0.5 -0.4-0.7-1.2-0.9-2-0.8 -0.2 0-0.3 0.1-0.4 0.2 -0.2 0.1-0.1 0.2-0.3 0.2 -0.1 0-0.2 0.1-0.2 0.2 0 0.1 0 0.1 0 0.2 0 0 0 0 0 0" class="a"/><path d="M8.2-25.7c0 0.1 0 0.1 0 0.2 -0.1 0.1-0.1 0.1-0.2 0.1 -0.1 0.1-0.1 0.3-0.1 0.4 -0.2 0.1 0 0.2 0 0.3 0 0 0 0.1 0 0.2 0 0.1 0 0.3 0.1 0.4 0.1 0.2 0.3 0.4 0.4 0.5C8.5-23.5 8.7-23.1 8.9-23c0.2 0 0.4-0.1 0.5-0.1 0.2 0 0.4 0 0.6-0.1 0.2-0.1 0.1-0.3 0.3-0.5 0.1-0.1 0.3 0 0.4-0.1 0.2-0.1 0.3-0.3 0.4-0.5 0-0.1 0-0.1 0-0.2 0-0.1 0.1-0.2 0.1-0.3 0-0.1-0.1-0.1-0.1-0.2 0-0.1 0-0.2 0-0.3 0-0.2 0-0.4-0.1-0.5 -0.4-0.7-1.2-0.9-2-0.8 -0.2 0-0.3 0.1-0.4 0.2 -0.2 0.1-0.1 0.2-0.3 0.2 -0.1 0-0.2 0.1-0.2 0.2 0 0.1 0 0.1 0 0.2 0 0 0 0 0 0" class="a"/><path d="M0.5-25.7c0 0.1 0 0.1 0 0.2 -0.1 0.1-0.1 0.1-0.2 0.1 -0.1 0.1-0.1 0.3-0.1 0.4C0.1-25 0.2-24.8 0.2-24.7c0 0 0 0.1 0 0.2 0 0.1 0 0.3 0.1 0.4 0.1 0.2 0.3 0.4 0.4 0.5C0.9-23.5 1-23.1 1.3-23c0.2 0 0.4-0.1 0.5-0.1 0.2 0 0.4 0 0.6-0.1 0.2-0.1 0.1-0.3 0.3-0.5 0.1-0.1 0.3 0 0.4-0.1 0.2-0.1 0.3-0.3 0.4-0.5 0-0.1 0-0.1 0-0.2 0-0.1 0.1-0.2 0.1-0.3 0-0.1-0.1-0.1-0.1-0.2 0-0.1 0-0.2 0-0.3 0-0.2 0-0.4-0.1-0.5 -0.4-0.7-1.2-0.9-2-0.8 -0.2 0-0.3 0.1-0.4 0.2 -0.2 0.1-0.1 0.2-0.3 0.2 -0.1 0-0.2 0.1-0.2 0.2 0 0.1 0 0.1 0 0.2 0 0 0 0 0 0" class="a"/><path d="M69.4-18.1c0 0.1 0 0.1 0 0.2 -0.1 0.1-0.1 0.1-0.2 0.1 -0.1 0.1-0.1 0.3-0.1 0.4 -0.2 0.1 0 0.2 0 0.3 0 0 0 0.1 0 0.2 0 0.1 0 0.3 0.1 0.4 0.1 0.2 0.3 0.4 0.4 0.5 0.2 0.1 0.4 0.6 0.6 0.6 0.2 0 0.4-0.1 0.5-0.1 0.2 0 0.4 0 0.6-0.1 0.2-0.1 0.1-0.3 0.3-0.5 0.1-0.1 0.3 0 0.4-0.1 0.2-0.1 0.3-0.3 0.4-0.5 0-0.1 0-0.1 0-0.2 0-0.1 0.1-0.2 0.1-0.3 0-0.1-0.1-0.1-0.1-0.2 0-0.1 0-0.2 0-0.3 0-0.2 0-0.4-0.1-0.5 -0.4-0.7-1.2-0.9-2-0.8 -0.2 0-0.3 0.1-0.4 0.2 -0.2 0.1-0.1 0.2-0.3 0.2 -0.1 0-0.2 0.1-0.2 0.2 0 0.1 0 0.1 0 0.2 0 0 0 0 0 0" class="a"/><path d="M61.8-18.1c0 0.1 0 0.1 0 0.2 -0.1 0.1-0.1 0.1-0.2 0.1 -0.1 0.1-0.1 0.3-0.1 0.4 -0.2 0.1 0 0.2 0 0.3 0 0 0 0.1 0 0.2 0 0.1 0 0.3 0.1 0.4 0.1 0.2 0.3 0.4 0.4 0.5 0.2 0.1 0.4 0.6 0.6 0.6 0.2 0 0.4-0.1 0.5-0.1 0.2 0 0.4 0 0.6-0.1 0.2-0.1 0.1-0.3 0.3-0.5 0.1-0.1 0.3 0 0.4-0.1 0.2-0.1 0.3-0.3 0.4-0.5 0-0.1 0-0.1 0-0.2 0-0.1 0.1-0.2 0.1-0.3 0-0.1-0.1-0.1-0.1-0.2 0-0.1 0-0.2 0-0.3 0-0.2 0-0.4-0.1-0.5 -0.4-0.7-1.2-0.9-2-0.8 -0.2 0-0.3 0.1-0.4 0.2 -0.2 0.1-0.1 0.2-0.3 0.2 -0.1 0-0.2 0.1-0.2 0.2 0 0.1 0 0.1 0 0.2 0 0 0 0 0 0" class="a"/><path d="M54.1-18.1c0 0.1 0 0.1 0 0.2 -0.1 0.1-0.1 0.1-0.2 0.1 -0.1 0.1-0.1 0.3-0.1 0.4 -0.2 0.1 0 0.2 0 0.3 0 0 0 0.1 0 0.2 0 0.1 0 0.3 0.1 0.4 0.1 0.2 0.3 0.4 0.4 0.5 0.2 0.1 0.4 0.6 0.6 0.6 0.2 0 0.4-0.1 0.5-0.1 0.2 0 0.4 0 0.6-0.1 0.2-0.1 0.1-0.3 0.3-0.5 0.1-0.1 0.3 0 0.4-0.1 0.2-0.1 0.3-0.3 0.4-0.5 0-0.1 0-0.1 0-0.2 0-0.1 0.1-0.2 0.1-0.3 0-0.1-0.1-0.1-0.1-0.2 0-0.1 0-0.2 0-0.3 0-0.2 0-0.4-0.1-0.5 -0.4-0.7-1.2-0.9-2-0.8 -0.2 0-0.3 0.1-0.4 0.2 -0.2 0.1-0.1 0.2-0.3 0.2 -0.1 0-0.2 0.1-0.2 0.2 0 0.1 0 0.1 0 0.2 0 0 0 0 0 0" class="a"/><path d="M46.5-18.1c0 0.1 0 0.1 0 0.2 -0.1 0.1-0.1 0.1-0.2 0.1 -0.1 0.1-0.1 0.3-0.1 0.4 -0.2 0.1 0 0.2 0 0.3 0 0 0 0.1 0 0.2 0 0.1 0 0.3 0.1 0.4 0.1 0.2 0.3 0.4 0.4 0.5 0.2 0.1 0.4 0.6 0.6 0.6 0.2 0 0.4-0.1 0.5-0.1 0.2 0 0.4 0 0.6-0.1 0.2-0.1 0.1-0.3 0.3-0.5 0.1-0.1 0.3 0 0.4-0.1 0.2-0.1 0.3-0.3 0.4-0.5 0-0.1 0-0.1 0-0.2 0-0.1 0.1-0.2 0.1-0.3 0-0.1-0.1-0.1-0.1-0.2 0-0.1 0-0.2 0-0.3 0-0.2 0-0.4-0.1-0.5 -0.4-0.7-1.2-0.9-2-0.8 -0.2 0-0.3 0.1-0.4 0.2 -0.2 0.1-0.1 0.2-0.3 0.2 -0.1 0-0.2 0.1-0.2 0.2 0 0.1 0 0.1 0 0.2 0 0 0 0 0 0" class="a"/><path d="M38.8-18.1c0 0.1 0 0.1 0 0.2 -0.1 0.1-0.1 0.1-0.2 0.1 -0.1 0.1-0.1 0.3-0.1 0.4 -0.2 0.1 0 0.2 0 0.3 0 0 0 0.1 0 0.2 0 0.1 0 0.3 0.1 0.4 0.1 0.2 0.3 0.4 0.4 0.5 0.2 0.1 0.4 0.6 0.6 0.6 0.2 0 0.4-0.1 0.5-0.1 0.2 0 0.4 0 0.6-0.1 0.2-0.1 0.1-0.3 0.3-0.5 0.1-0.1 0.3 0 0.4-0.1 0.2-0.1 0.3-0.3 0.4-0.5 0-0.1 0-0.1 0-0.2 0-0.1 0.1-0.2 0.1-0.3 0-0.1-0.1-0.1-0.1-0.2 0-0.1 0-0.2 0-0.3 0-0.2 0-0.4-0.1-0.5 -0.4-0.7-1.2-0.9-2-0.8 -0.2 0-0.3 0.1-0.4 0.2 -0.2 0.1-0.1 0.2-0.3 0.2 -0.1 0-0.2 0.1-0.2 0.2 0 0.1 0 0.1 0 0.2 0 0 0 0 0 0" class="a"/><path d="M31.1-18.1c0 0.1 0 0.1 0 0.2 -0.1 0.1-0.1 0.1-0.2 0.1 -0.1 0.1-0.1 0.3-0.1 0.4 -0.2 0.1 0 0.2 0 0.3 0 0 0 0.1 0 0.2 0 0.1 0 0.3 0.1 0.4 0.1 0.2 0.3 0.4 0.4 0.5 0.2 0.1 0.4 0.6 0.6 0.6 0.2 0 0.4-0.1 0.5-0.1 0.2 0 0.4 0 0.6-0.1 0.2-0.1 0.1-0.3 0.3-0.5 0.1-0.1 0.3 0 0.4-0.1 0.2-0.1 0.3-0.3 0.4-0.5 0-0.1 0-0.1 0-0.2 0-0.1 0.1-0.2 0.1-0.3 0-0.1-0.1-0.1-0.1-0.2 0-0.1 0-0.2 0-0.3 0-0.2 0-0.4-0.1-0.5 -0.4-0.7-1.2-0.9-2-0.8 -0.2 0-0.3 0.1-0.4 0.2 -0.2 0.1-0.1 0.2-0.3 0.2 -0.1 0-0.2 0.1-0.2 0.2 0 0.1 0 0.1 0 0.2 0 0 0 0 0 0" class="a"/><path d="M23.5-18.1c0 0.1 0 0.1 0 0.2 -0.1 0.1-0.1 0.1-0.2 0.1 -0.1 0.1-0.1 0.3-0.1 0.4 -0.2 0.1 0 0.2 0 0.3 0 0 0 0.1 0 0.2 0 0.1 0 0.3 0.1 0.4 0.1 0.2 0.3 0.4 0.4 0.5 0.2 0.1 0.4 0.6 0.6 0.6 0.2 0 0.4-0.1 0.5-0.1 0.2 0 0.4 0 0.6-0.1 0.2-0.1 0.1-0.3 0.3-0.5 0.1-0.1 0.3 0 0.4-0.1 0.2-0.1 0.3-0.3 0.4-0.5 0-0.1 0-0.1 0-0.2 0-0.1 0.1-0.2 0.1-0.3 0-0.1-0.1-0.1-0.1-0.2 0-0.1 0-0.2 0-0.3 0-0.2 0-0.4-0.1-0.5 -0.4-0.7-1.2-0.9-2-0.8 -0.2 0-0.3 0.1-0.4 0.2 -0.2 0.1-0.1 0.2-0.3 0.2 -0.1 0-0.2 0.1-0.2 0.2 0 0.1 0 0.1 0 0.2 0 0 0 0 0 0" class="a"/><path d="M15.8-18.1c0 0.1 0 0.1 0 0.2 -0.1 0.1-0.1 0.1-0.2 0.1 -0.1 0.1-0.1 0.3-0.1 0.4 -0.2 0.1 0 0.2 0 0.3 0 0 0 0.1 0 0.2 0 0.1 0 0.3 0.1 0.4 0.1 0.2 0.3 0.4 0.4 0.5 0.2 0.1 0.4 0.6 0.6 0.6 0.2 0 0.4-0.1 0.5-0.1 0.2 0 0.4 0 0.6-0.1 0.2-0.1 0.1-0.3 0.3-0.5 0.1-0.1 0.3 0 0.4-0.1 0.2-0.1 0.3-0.3 0.4-0.5 0-0.1 0-0.1 0-0.2 0-0.1 0.1-0.2 0.1-0.3 0-0.1-0.1-0.1-0.1-0.2 0-0.1 0-0.2 0-0.3 0-0.2 0-0.4-0.1-0.5 -0.4-0.7-1.2-0.9-2-0.8 -0.2 0-0.3 0.1-0.4 0.2 -0.2 0.1-0.1 0.2-0.3 0.2 -0.1 0-0.2 0.1-0.2 0.2 0 0.1 0 0.1 0 0.2 0 0 0 0 0 0" class="a"/><path d="M8.2-18.1c0 0.1 0 0.1 0 0.2 -0.1 0.1-0.1 0.1-0.2 0.1 -0.1 0.1-0.1 0.3-0.1 0.4 -0.2 0.1 0 0.2 0 0.3 0 0 0 0.1 0 0.2 0 0.1 0 0.3 0.1 0.4 0.1 0.2 0.3 0.4 0.4 0.5 0.2 0.1 0.4 0.6 0.6 0.6 0.2 0 0.4-0.1 0.5-0.1 0.2 0 0.4 0 0.6-0.1 0.2-0.1 0.1-0.3 0.3-0.5 0.1-0.1 0.3 0 0.4-0.1 0.2-0.1 0.3-0.3 0.4-0.5 0-0.1 0-0.1 0-0.2 0-0.1 0.1-0.2 0.1-0.3 0-0.1-0.1-0.1-0.1-0.2 0-0.1 0-0.2 0-0.3 0-0.2 0-0.4-0.1-0.5 -0.4-0.7-1.2-0.9-2-0.8 -0.2 0-0.3 0.1-0.4 0.2 -0.2 0.1-0.1 0.2-0.3 0.2 -0.1 0-0.2 0.1-0.2 0.2 0 0.1 0 0.1 0 0.2 0 0 0 0 0 0" class="a"/><path d="M0.5-18.1c0 0.1 0 0.1 0 0.2 -0.1 0.1-0.1 0.1-0.2 0.1 -0.1 0.1-0.1 0.3-0.1 0.4 -0.2 0.1 0 0.2 0 0.3 0 0 0 0.1 0 0.2 0 0.1 0 0.3 0.1 0.4 0.1 0.2 0.3 0.4 0.4 0.5 0.2 0.1 0.4 0.6 0.6 0.6 0.2 0 0.4-0.1 0.5-0.1 0.2 0 0.4 0 0.6-0.1 0.2-0.1 0.1-0.3 0.3-0.5 0.1-0.1 0.3 0 0.4-0.1 0.2-0.1 0.3-0.3 0.4-0.5 0-0.1 0-0.1 0-0.2 0-0.1 0.1-0.2 0.1-0.3 0-0.1-0.1-0.1-0.1-0.2 0-0.1 0-0.2 0-0.3 0-0.2 0-0.4-0.1-0.5 -0.4-0.7-1.2-0.9-2-0.8 -0.2 0-0.3 0.1-0.4 0.2 -0.2 0.1-0.1 0.2-0.3 0.2 -0.1 0-0.2 0.1-0.2 0.2 0 0.1 0 0.1 0 0.2 0 0 0 0 0 0" class="a"/><path d="M69.4-10.4c0 0.1 0 0.1 0 0.2 -0.1 0.1-0.1 0.1-0.2 0.1 -0.1 0.1-0.1 0.3-0.1 0.4C69-9.7 69.2-9.5 69.2-9.4c0 0 0 0.1 0 0.2 0 0.1 0 0.3 0.1 0.4 0.1 0.2 0.3 0.4 0.4 0.5 0.2 0.1 0.4 0.6 0.6 0.6 0.2 0 0.4-0.1 0.5-0.1 0.2 0 0.4 0 0.6-0.1 0.2-0.1 0.1-0.3 0.3-0.5 0.1-0.1 0.3 0 0.4-0.1 0.2-0.1 0.3-0.3 0.4-0.5 0-0.1 0-0.1 0-0.2 0-0.1 0.1-0.2 0.1-0.3 0-0.1-0.1-0.1-0.1-0.2 0-0.1 0-0.2 0-0.3 0-0.2 0-0.4-0.1-0.5 -0.4-0.7-1.2-0.9-2-0.8 -0.2 0-0.3 0.1-0.4 0.2 -0.2 0.1-0.1 0.2-0.3 0.2 -0.1 0-0.2 0.1-0.2 0.2 0 0.1 0 0.1 0 0.2 0 0 0 0 0 0" class="a"/><path d="M61.8-10.4c0 0.1 0 0.1 0 0.2 -0.1 0.1-0.1 0.1-0.2 0.1 -0.1 0.1-0.1 0.3-0.1 0.4 -0.2 0.1 0 0.2 0 0.3 0 0 0 0.1 0 0.2 0 0.1 0 0.3 0.1 0.4 0.1 0.2 0.3 0.4 0.4 0.5 0.2 0.1 0.4 0.6 0.6 0.6 0.2 0 0.4-0.1 0.5-0.1 0.2 0 0.4 0 0.6-0.1 0.2-0.1 0.1-0.3 0.3-0.5 0.1-0.1 0.3 0 0.4-0.1 0.2-0.1 0.3-0.3 0.4-0.5 0-0.1 0-0.1 0-0.2 0-0.1 0.1-0.2 0.1-0.3 0-0.1-0.1-0.1-0.1-0.2 0-0.1 0-0.2 0-0.3 0-0.2 0-0.4-0.1-0.5 -0.4-0.7-1.2-0.9-2-0.8 -0.2 0-0.3 0.1-0.4 0.2 -0.2 0.1-0.1 0.2-0.3 0.2 -0.1 0-0.2 0.1-0.2 0.2 0 0.1 0 0.1 0 0.2 0 0 0 0 0 0" class="a"/><path d="M54.1-10.4c0 0.1 0 0.1 0 0.2 -0.1 0.1-0.1 0.1-0.2 0.1 -0.1 0.1-0.1 0.3-0.1 0.4 -0.2 0.1 0 0.2 0 0.3 0 0 0 0.1 0 0.2 0 0.1 0 0.3 0.1 0.4 0.1 0.2 0.3 0.4 0.4 0.5 0.2 0.1 0.4 0.6 0.6 0.6 0.2 0 0.4-0.1 0.5-0.1 0.2 0 0.4 0 0.6-0.1 0.2-0.1 0.1-0.3 0.3-0.5 0.1-0.1 0.3 0 0.4-0.1 0.2-0.1 0.3-0.3 0.4-0.5 0-0.1 0-0.1 0-0.2 0-0.1 0.1-0.2 0.1-0.3 0-0.1-0.1-0.1-0.1-0.2 0-0.1 0-0.2 0-0.3 0-0.2 0-0.4-0.1-0.5 -0.4-0.7-1.2-0.9-2-0.8 -0.2 0-0.3 0.1-0.4 0.2 -0.2 0.1-0.1 0.2-0.3 0.2 -0.1 0-0.2 0.1-0.2 0.2 0 0.1 0 0.1 0 0.2 0 0 0 0 0 0" class="a"/><path d="M46.5-10.4c0 0.1 0 0.1 0 0.2 -0.1 0.1-0.1 0.1-0.2 0.1 -0.1 0.1-0.1 0.3-0.1 0.4 -0.2 0.1 0 0.2 0 0.3 0 0 0 0.1 0 0.2 0 0.1 0 0.3 0.1 0.4 0.1 0.2 0.3 0.4 0.4 0.5 0.2 0.1 0.4 0.6 0.6 0.6 0.2 0 0.4-0.1 0.5-0.1 0.2 0 0.4 0 0.6-0.1 0.2-0.1 0.1-0.3 0.3-0.5 0.1-0.1 0.3 0 0.4-0.1 0.2-0.1 0.3-0.3 0.4-0.5 0-0.1 0-0.1 0-0.2 0-0.1 0.1-0.2 0.1-0.3 0-0.1-0.1-0.1-0.1-0.2 0-0.1 0-0.2 0-0.3 0-0.2 0-0.4-0.1-0.5 -0.4-0.7-1.2-0.9-2-0.8 -0.2 0-0.3 0.1-0.4 0.2 -0.2 0.1-0.1 0.2-0.3 0.2 -0.1 0-0.2 0.1-0.2 0.2 0 0.1 0 0.1 0 0.2 0 0 0 0 0 0" class="a"/><path d="M38.8-10.4c0 0.1 0 0.1 0 0.2 -0.1 0.1-0.1 0.1-0.2 0.1 -0.1 0.1-0.1 0.3-0.1 0.4 -0.2 0.1 0 0.2 0 0.3 0 0 0 0.1 0 0.2 0 0.1 0 0.3 0.1 0.4 0.1 0.2 0.3 0.4 0.4 0.5 0.2 0.1 0.4 0.6 0.6 0.6 0.2 0 0.4-0.1 0.5-0.1 0.2 0 0.4 0 0.6-0.1 0.2-0.1 0.1-0.3 0.3-0.5 0.1-0.1 0.3 0 0.4-0.1 0.2-0.1 0.3-0.3 0.4-0.5 0-0.1 0-0.1 0-0.2 0-0.1 0.1-0.2 0.1-0.3 0-0.1-0.1-0.1-0.1-0.2 0-0.1 0-0.2 0-0.3 0-0.2 0-0.4-0.1-0.5 -0.4-0.7-1.2-0.9-2-0.8 -0.2 0-0.3 0.1-0.4 0.2 -0.2 0.1-0.1 0.2-0.3 0.2 -0.1 0-0.2 0.1-0.2 0.2 0 0.1 0 0.1 0 0.2 0 0 0 0 0 0" class="a"/><path d="M31.1-10.4c0 0.1 0 0.1 0 0.2 -0.1 0.1-0.1 0.1-0.2 0.1 -0.1 0.1-0.1 0.3-0.1 0.4 -0.2 0.1 0 0.2 0 0.3 0 0 0 0.1 0 0.2 0 0.1 0 0.3 0.1 0.4 0.1 0.2 0.3 0.4 0.4 0.5 0.2 0.1 0.4 0.6 0.6 0.6 0.2 0 0.4-0.1 0.5-0.1 0.2 0 0.4 0 0.6-0.1 0.2-0.1 0.1-0.3 0.3-0.5 0.1-0.1 0.3 0 0.4-0.1 0.2-0.1 0.3-0.3 0.4-0.5 0-0.1 0-0.1 0-0.2 0-0.1 0.1-0.2 0.1-0.3 0-0.1-0.1-0.1-0.1-0.2 0-0.1 0-0.2 0-0.3 0-0.2 0-0.4-0.1-0.5 -0.4-0.7-1.2-0.9-2-0.8 -0.2 0-0.3 0.1-0.4 0.2 -0.2 0.1-0.1 0.2-0.3 0.2 -0.1 0-0.2 0.1-0.2 0.2 0 0.1 0 0.1 0 0.2 0 0 0 0 0 0" class="a"/><path d="M23.5-10.4c0 0.1 0 0.1 0 0.2 -0.1 0.1-0.1 0.1-0.2 0.1 -0.1 0.1-0.1 0.3-0.1 0.4 -0.2 0.1 0 0.2 0 0.3 0 0 0 0.1 0 0.2 0 0.1 0 0.3 0.1 0.4 0.1 0.2 0.3 0.4 0.4 0.5 0.2 0.1 0.4 0.6 0.6 0.6 0.2 0 0.4-0.1 0.5-0.1 0.2 0 0.4 0 0.6-0.1 0.2-0.1 0.1-0.3 0.3-0.5 0.1-0.1 0.3 0 0.4-0.1 0.2-0.1 0.3-0.3 0.4-0.5 0-0.1 0-0.1 0-0.2 0-0.1 0.1-0.2 0.1-0.3 0-0.1-0.1-0.1-0.1-0.2 0-0.1 0-0.2 0-0.3 0-0.2 0-0.4-0.1-0.5 -0.4-0.7-1.2-0.9-2-0.8 -0.2 0-0.3 0.1-0.4 0.2 -0.2 0.1-0.1 0.2-0.3 0.2 -0.1 0-0.2 0.1-0.2 0.2 0 0.1 0 0.1 0 0.2 0 0 0 0 0 0" class="a"/><path d="M15.8-10.4c0 0.1 0 0.1 0 0.2 -0.1 0.1-0.1 0.1-0.2 0.1 -0.1 0.1-0.1 0.3-0.1 0.4 -0.2 0.1 0 0.2 0 0.3 0 0 0 0.1 0 0.2 0 0.1 0 0.3 0.1 0.4 0.1 0.2 0.3 0.4 0.4 0.5 0.2 0.1 0.4 0.6 0.6 0.6 0.2 0 0.4-0.1 0.5-0.1 0.2 0 0.4 0 0.6-0.1 0.2-0.1 0.1-0.3 0.3-0.5 0.1-0.1 0.3 0 0.4-0.1 0.2-0.1 0.3-0.3 0.4-0.5 0-0.1 0-0.1 0-0.2 0-0.1 0.1-0.2 0.1-0.3 0-0.1-0.1-0.1-0.1-0.2 0-0.1 0-0.2 0-0.3 0-0.2 0-0.4-0.1-0.5 -0.4-0.7-1.2-0.9-2-0.8 -0.2 0-0.3 0.1-0.4 0.2 -0.2 0.1-0.1 0.2-0.3 0.2 -0.1 0-0.2 0.1-0.2 0.2 0 0.1 0 0.1 0 0.2 0 0 0 0 0 0" class="a"/><path d="M8.2-10.4c0 0.1 0 0.1 0 0.2 -0.1 0.1-0.1 0.1-0.2 0.1C7.9-10 7.9-9.8 7.9-9.7 7.7-9.7 7.9-9.5 7.9-9.4 7.9-9.4 7.8-9.3 7.8-9.2 7.8-9.1 7.8-9 7.9-8.9c0.1 0.2 0.3 0.4 0.4 0.5C8.5-8.2 8.7-7.8 8.9-7.7c0.2 0 0.4-0.1 0.5-0.1 0.2 0 0.4 0 0.6-0.1 0.2-0.1 0.1-0.3 0.3-0.5 0.1-0.1 0.3 0 0.4-0.1 0.2-0.1 0.3-0.3 0.4-0.5 0-0.1 0-0.1 0-0.2 0-0.1 0.1-0.2 0.1-0.3 0-0.1-0.1-0.1-0.1-0.2 0-0.1 0-0.2 0-0.3 0-0.2 0-0.4-0.1-0.5 -0.4-0.7-1.2-0.9-2-0.8 -0.2 0-0.3 0.1-0.4 0.2 -0.2 0.1-0.1 0.2-0.3 0.2 -0.1 0-0.2 0.1-0.2 0.2 0 0.1 0 0.1 0 0.2 0 0 0 0 0 0" class="a"/><path d="M0.5-10.4c0 0.1 0 0.1 0 0.2 -0.1 0.1-0.1 0.1-0.2 0.1C0.3-10 0.2-9.8 0.2-9.7 0.1-9.7 0.2-9.5 0.2-9.4 0.2-9.4 0.2-9.3 0.2-9.2 0.2-9.1 0.2-9 0.2-8.9 0.3-8.7 0.5-8.5 0.7-8.3c0.2 0.1 0.4 0.6 0.6 0.6 0.2 0 0.4-0.1 0.5-0.1 0.2 0 0.4 0 0.6-0.1 0.2-0.1 0.1-0.3 0.3-0.5C2.8-8.4 3-8.3 3.1-8.4c0.2-0.1 0.3-0.3 0.4-0.5 0-0.1 0-0.1 0-0.2 0-0.1 0.1-0.2 0.1-0.3C3.6-9.4 3.5-9.5 3.5-9.6c0-0.1 0-0.2 0-0.3 0-0.2 0-0.4-0.1-0.5 -0.4-0.7-1.2-0.9-2-0.8 -0.2 0-0.3 0.1-0.4 0.2 -0.2 0.1-0.1 0.2-0.3 0.2 -0.1 0-0.2 0.1-0.2 0.2 0 0.1 0 0.1 0 0.2 0 0 0 0 0 0" class="a"/><path d="M69.4-2.8c0 0.1 0 0.1 0 0.2 -0.1 0.1-0.1 0.1-0.2 0.1 -0.1 0.1-0.1 0.3-0.1 0.4C69-2 69.2-1.9 69.2-1.7c0 0 0 0.1 0 0.2 0 0.1 0 0.3 0.1 0.4 0.1 0.2 0.3 0.4 0.4 0.5 0.2 0.1 0.4 0.6 0.6 0.6C70.4 0 70.6-0.1 70.8-0.2c0.2 0 0.4 0 0.6-0.1 0.2-0.1 0.1-0.3 0.3-0.5 0.1-0.1 0.3 0 0.4-0.1 0.2-0.1 0.3-0.3 0.4-0.5 0-0.1 0-0.1 0-0.2 0-0.1 0.1-0.2 0.1-0.3 0-0.1-0.1-0.1-0.1-0.2 0-0.1 0-0.2 0-0.3 0-0.2 0-0.4-0.1-0.5 -0.4-0.7-1.2-0.9-2-0.8 -0.2 0-0.3 0.1-0.4 0.2 -0.2 0.1-0.1 0.2-0.3 0.2 -0.1 0-0.2 0.1-0.2 0.2 0 0.1 0 0.1 0 0.2 0 0 0 0 0 0" class="a"/><path d="M61.8-2.8c0 0.1 0 0.1 0 0.2 -0.1 0.1-0.1 0.1-0.2 0.1 -0.1 0.1-0.1 0.3-0.1 0.4C61.3-2 61.5-1.9 61.5-1.7c0 0 0 0.1 0 0.2 0 0.1 0 0.3 0.1 0.4 0.1 0.2 0.3 0.4 0.4 0.5 0.2 0.1 0.4 0.6 0.6 0.6 0.2 0 0.4-0.1 0.5-0.1 0.2 0 0.4 0 0.6-0.1 0.2-0.1 0.1-0.3 0.3-0.5 0.1-0.1 0.3 0 0.4-0.1 0.2-0.1 0.3-0.3 0.4-0.5 0-0.1 0-0.1 0-0.2 0-0.1 0.1-0.2 0.1-0.3 0-0.1-0.1-0.1-0.1-0.2 0-0.1 0-0.2 0-0.3 0-0.2 0-0.4-0.1-0.5 -0.4-0.7-1.2-0.9-2-0.8 -0.2 0-0.3 0.1-0.4 0.2 -0.2 0.1-0.1 0.2-0.3 0.2 -0.1 0-0.2 0.1-0.2 0.2 0 0.1 0 0.1 0 0.2 0 0 0 0 0 0" class="a"/><path d="M54.1-2.8c0 0.1 0 0.1 0 0.2C54-2.5 54-2.5 53.9-2.5c-0.1 0.1-0.1 0.3-0.1 0.4C53.7-2 53.8-1.9 53.8-1.7c0 0 0 0.1 0 0.2 0 0.1 0 0.3 0.1 0.4 0.1 0.2 0.3 0.4 0.4 0.5 0.2 0.1 0.4 0.6 0.6 0.6 0.2 0 0.4-0.1 0.5-0.1 0.2 0 0.4 0 0.6-0.1 0.2-0.1 0.1-0.3 0.3-0.5 0.1-0.1 0.3 0 0.4-0.1 0.2-0.1 0.3-0.3 0.4-0.5 0-0.1 0-0.1 0-0.2 0-0.1 0.1-0.2 0.1-0.3 0-0.1-0.1-0.1-0.1-0.2 0-0.1 0-0.2 0-0.3 0-0.2 0-0.4-0.1-0.5 -0.4-0.7-1.2-0.9-2-0.8 -0.2 0-0.3 0.1-0.4 0.2 -0.2 0.1-0.1 0.2-0.3 0.2 -0.1 0-0.2 0.1-0.2 0.2 0 0.1 0 0.1 0 0.2 0 0 0 0 0 0" class="a"/><path d="M46.5-2.8c0 0.1 0 0.1 0 0.2 -0.1 0.1-0.1 0.1-0.2 0.1 -0.1 0.1-0.1 0.3-0.1 0.4C46-2 46.2-1.9 46.2-1.7c0 0 0 0.1 0 0.2 0 0.1 0 0.3 0.1 0.4 0.1 0.2 0.3 0.4 0.4 0.5 0.2 0.1 0.4 0.6 0.6 0.6C47.4 0 47.6-0.1 47.8-0.2c0.2 0 0.4 0 0.6-0.1 0.2-0.1 0.1-0.3 0.3-0.5 0.1-0.1 0.3 0 0.4-0.1 0.2-0.1 0.3-0.3 0.4-0.5 0-0.1 0-0.1 0-0.2 0-0.1 0.1-0.2 0.1-0.3 0-0.1-0.1-0.1-0.1-0.2 0-0.1 0-0.2 0-0.3 0-0.2 0-0.4-0.1-0.5 -0.4-0.7-1.2-0.9-2-0.8 -0.2 0-0.3 0.1-0.4 0.2 -0.2 0.1-0.1 0.2-0.3 0.2 -0.1 0-0.2 0.1-0.2 0.2 0 0.1 0 0.1 0 0.2 0 0 0 0 0 0" class="a"/><path d="M38.8-2.8c0 0.1 0 0.1 0 0.2 -0.1 0.1-0.1 0.1-0.2 0.1 -0.1 0.1-0.1 0.3-0.1 0.4C38.4-2 38.5-1.9 38.5-1.7c0 0 0 0.1 0 0.2 0 0.1 0 0.3 0.1 0.4 0.1 0.2 0.3 0.4 0.4 0.5 0.2 0.1 0.4 0.6 0.6 0.6 0.2 0 0.4-0.1 0.5-0.1 0.2 0 0.4 0 0.6-0.1 0.2-0.1 0.1-0.3 0.3-0.5 0.1-0.1 0.3 0 0.4-0.1 0.2-0.1 0.3-0.3 0.4-0.5 0-0.1 0-0.1 0-0.2 0-0.1 0.1-0.2 0.1-0.3 0-0.1-0.1-0.1-0.1-0.2 0-0.1 0-0.2 0-0.3 0-0.2 0-0.4-0.1-0.5 -0.4-0.7-1.2-0.9-2-0.8 -0.2 0-0.3 0.1-0.4 0.2 -0.2 0.1-0.1 0.2-0.3 0.2 -0.1 0-0.2 0.1-0.2 0.2 0 0.1 0 0.1 0 0.2 0 0 0 0 0 0" class="a"/><path d="M31.1-2.8c0 0.1 0 0.1 0 0.2 -0.1 0.1-0.1 0.1-0.2 0.1 -0.1 0.1-0.1 0.3-0.1 0.4C30.7-2 30.9-1.9 30.9-1.7c0 0 0 0.1 0 0.2 0 0.1 0 0.3 0.1 0.4 0.1 0.2 0.3 0.4 0.4 0.5 0.2 0.1 0.4 0.6 0.6 0.6 0.2 0 0.4-0.1 0.5-0.1 0.2 0 0.4 0 0.6-0.1 0.2-0.1 0.1-0.3 0.3-0.5 0.1-0.1 0.3 0 0.4-0.1 0.2-0.1 0.3-0.3 0.4-0.5 0-0.1 0-0.1 0-0.2 0-0.1 0.1-0.2 0.1-0.3 0-0.1-0.1-0.1-0.1-0.2 0-0.1 0-0.2 0-0.3 0-0.2 0-0.4-0.1-0.5 -0.4-0.7-1.2-0.9-2-0.8 -0.2 0-0.3 0.1-0.4 0.2 -0.2 0.1-0.1 0.2-0.3 0.2 -0.1 0-0.2 0.1-0.2 0.2 0 0.1 0 0.1 0 0.2 0 0 0 0 0 0" class="a"/><path d="M23.5-2.8c0 0.1 0 0.1 0 0.2 -0.1 0.1-0.1 0.1-0.2 0.1 -0.1 0.1-0.1 0.3-0.1 0.4C23-2 23.2-1.9 23.2-1.7c0 0 0 0.1 0 0.2 0 0.1 0 0.3 0.1 0.4 0.1 0.2 0.3 0.4 0.4 0.5 0.2 0.1 0.4 0.6 0.6 0.6 0.2 0 0.4-0.1 0.5-0.1 0.2 0 0.4 0 0.6-0.1 0.2-0.1 0.1-0.3 0.3-0.5 0.1-0.1 0.3 0 0.4-0.1 0.2-0.1 0.3-0.3 0.4-0.5 0-0.1 0-0.1 0-0.2 0-0.1 0.1-0.2 0.1-0.3 0-0.1-0.1-0.1-0.1-0.2 0-0.1 0-0.2 0-0.3 0-0.2 0-0.4-0.1-0.5 -0.4-0.7-1.2-0.9-2-0.8 -0.2 0-0.3 0.1-0.4 0.2 -0.2 0.1-0.1 0.2-0.3 0.2 -0.1 0-0.2 0.1-0.2 0.2 0 0.1 0 0.1 0 0.2 0 0 0 0 0 0" class="a"/><path d="M15.8-2.8c0 0.1 0 0.1 0 0.2 -0.1 0.1-0.1 0.1-0.2 0.1 -0.1 0.1-0.1 0.3-0.1 0.4C15.4-2 15.5-1.9 15.5-1.7c0 0 0 0.1 0 0.2 0 0.1 0 0.3 0.1 0.4 0.1 0.2 0.3 0.4 0.4 0.5 0.2 0.1 0.4 0.6 0.6 0.6C16.8 0 17-0.1 17.1-0.2c0.2 0 0.4 0 0.6-0.1 0.2-0.1 0.1-0.3 0.3-0.5 0.1-0.1 0.3 0 0.4-0.1 0.2-0.1 0.3-0.3 0.4-0.5 0-0.1 0-0.1 0-0.2 0-0.1 0.1-0.2 0.1-0.3 0-0.1-0.1-0.1-0.1-0.2 0-0.1 0-0.2 0-0.3 0-0.2 0-0.4-0.1-0.5 -0.4-0.7-1.2-0.9-2-0.8 -0.2 0-0.3 0.1-0.4 0.2 -0.2 0.1-0.1 0.2-0.3 0.2 -0.1 0-0.2 0.1-0.2 0.2 0 0.1 0 0.1 0 0.2 0 0 0 0 0 0" class="a"/><path d="M8.2-2.8c0 0.1 0 0.1 0 0.2C8.1-2.5 8-2.5 8-2.5 7.9-2.4 7.9-2.2 7.9-2.1 7.7-2 7.9-1.9 7.9-1.7 7.9-1.7 7.8-1.6 7.8-1.6 7.8-1.5 7.8-1.3 7.9-1.2c0.1 0.2 0.3 0.4 0.4 0.5C8.5-0.5 8.7-0.1 8.9 0 9.1 0 9.3-0.1 9.5-0.2c0.2 0 0.4 0 0.6-0.1 0.2-0.1 0.1-0.3 0.3-0.5 0.1-0.1 0.3 0 0.4-0.1 0.2-0.1 0.3-0.3 0.4-0.5 0-0.1 0-0.1 0-0.2 0-0.1 0.1-0.2 0.1-0.3 0-0.1-0.1-0.1-0.1-0.2 0-0.1 0-0.2 0-0.3 0-0.2 0-0.4-0.1-0.5 -0.4-0.7-1.2-0.9-2-0.8C9-3.5 8.8-3.4 8.7-3.4c-0.2 0.1-0.1 0.2-0.3 0.2 -0.1 0-0.2 0.1-0.2 0.2C8.2-2.8 8.2-2.9 8.2-2.8 8.1-2.7 8.1-2.8 8.1-2.8" class="a"/><path d="M0.5-2.8c0 0.1 0 0.1 0 0.2C0.4-2.5 0.4-2.5 0.3-2.5 0.3-2.4 0.2-2.2 0.2-2.1 0.1-2 0.2-1.9 0.2-1.7 0.2-1.7 0.2-1.6 0.2-1.6 0.2-1.5 0.2-1.3 0.2-1.2 0.3-1 0.5-0.8 0.7-0.7 0.9-0.5 1-0.1 1.3 0 1.5 0 1.7-0.1 1.8-0.2c0.2 0 0.4 0 0.6-0.1 0.2-0.1 0.1-0.3 0.3-0.5C2.8-0.8 3-0.7 3.1-0.7c0.2-0.1 0.3-0.3 0.4-0.5 0-0.1 0-0.1 0-0.2 0-0.1 0.1-0.2 0.1-0.3C3.6-1.8 3.5-1.8 3.5-1.9c0-0.1 0-0.2 0-0.3C3.5-2.4 3.5-2.6 3.4-2.8 3.1-3.5 2.2-3.7 1.5-3.6 1.3-3.5 1.2-3.4 1-3.4c-0.2 0.1-0.1 0.2-0.3 0.2C0.6-3.1 0.5-3 0.5-2.9 0.5-2.8 0.5-2.9 0.5-2.8 0.5-2.7 0.5-2.8 0.5-2.8" class="a"/></pattern></defs><path d="M0 6.4v49.7h49.7V6.4H0zM48.5 54.9H1.2V7.6h47.3V54.9z" class="a"/><path d="M14.8 28.7h19.6c0-3.4-0.9-6.1-2.6-7.9 -1.7-1.9-4-2.8-7-2.8 -3 0-5.4 0.9-7.1 2.8C15.8 22.7 14.9 25.3 14.8 28.7L14.8 28.7zM14.8 34.1c0.2 3.2 1.3 5.8 3.4 7.7 2.1 1.9 4.7 2.9 7.9 2.9 3.5 0 7-0.9 10.4-2.6l1.7 5.3c-4 1.9-8.3 2.8-12.9 2.8 -5.2 0-9.5-1.7-12.8-5.1 -3.3-3.4-5-8-5-13.7 0-5.9 1.5-10.4 4.6-13.8 3.1-3.3 7.2-5 12.4-5 5.2 0 9.2 1.6 12 4.7 2.9 3.2 4.3 7.7 4.3 13.7 0 0.7 0 1.7-0.1 3.1H14.8L14.8 34.1z" class="a"/><path d="M80.1 46.5l0.6 1.2c-3 1.6-6.1 2.4-9.5 2.4 -5.1 0-9.1-1.7-12.3-5 -3.1-3.4-4.7-7.8-4.7-13.2 0-5.6 1.5-10.1 4.5-13.4 3-3.3 7.2-4.9 12.4-4.9 3.3 0 6.5 0.8 9.5 2.4l-0.6 1.2c-2.8-1.5-5.7-2.2-8.9-2.2 -4.9 0-8.7 1.5-11.4 4.5 -2.8 3-4.1 7.1-4.1 12.5 0 5.1 1.4 9.1 4.3 12.3 2.8 3.1 6.6 4.7 11.3 4.7C74.4 48.8 77.3 48 80.1 46.5L80.1 46.5z" class="a"/><path d="M86.8 22.9h0.1c1.2-2.8 2.9-5.1 5.1-6.8 2.3-1.7 4.8-2.5 7.6-2.5 4.2 0 7.3 1.2 9.3 3.5 1.9 2.3 2.9 6.1 2.9 11.4v21h-1.4V28.4c0-4.9-0.8-8.4-2.5-10.4 -1.7-2.1-4.4-3.1-8.3-3.1 -3.6 0-6.6 1.5-9.1 4.4 -2.5 2.9-3.8 6.4-3.8 10.5v19.6h-1.4V0h1.4V22.9L86.8 22.9z" class="a"/><path d="M117 30.8h27c-0.1-5.1-1.2-9.1-3.4-11.8 -2.2-2.7-5.3-4.1-9.4-4.1 -4.4 0-7.8 1.4-10.3 4.2C118.5 21.8 117.2 25.8 117 30.8L117 30.8zM117 32.2c0 5.2 1.4 9.3 4 12.2 2.6 2.9 6.3 4.4 10.9 4.4 4 0 7.6-1 10.8-3l0.7 1.2c-3.5 2.1-7.4 3.1-11.5 3.1 -5 0-9-1.6-11.9-4.9 -2.9-3.3-4.4-7.7-4.4-13.4 0-5.7 1.4-10.2 4.1-13.4 2.8-3.2 6.6-4.8 11.4-4.8 4.5 0 8 1.6 10.5 4.7 2.5 3.1 3.7 7.6 3.7 13.2v0.7H117L117 32.2z" class="a"/><path d="M171.6 27.1v22.3h-1.4V27.1c0-4.2-0.7-7.3-2.1-9.3 -1.4-1.9-3.6-2.9-6.7-2.9 -2.6 0-5 1.4-7 4.2 -2.1 2.8-3.1 6.4-3.1 10.7v19.6h-1.4V14.2h1.4v7.9h0.1c1-2.6 2.4-4.7 4.1-6.3 1.8-1.6 3.7-2.3 5.9-2.3 5.3 0 8.5 2.7 9.6 8.1h0.1c0.8-2.5 2.1-4.4 4-5.9 1.8-1.4 4-2.2 6.6-2.2 3.5 0 6 1.1 7.7 3.3 1.6 2.2 2.5 5.6 2.5 10.2v22.3h-1.4V27.1c0-4.2-0.7-7.3-2.1-9.3 -1.4-1.9-3.6-2.9-6.7-2.9 -3 0-5.4 1.1-7.3 3.4C172.6 20.5 171.6 23.4 171.6 27.1L171.6 27.1z" class="a"/><polygon points="197.4 49.4 197.4 14.2 198.8 14.2 198.8 49.4 197.4 49.4 " class="a"/><path d="M226.6 16.3l-0.6 1.2c-3.6-1.7-7.2-2.6-10.9-2.6 -3.2 0-5.8 0.7-7.7 2 -1.9 1.4-2.8 3.2-2.8 5.4 0 2 0.7 3.7 2.2 5 1.5 1.3 4.3 2.3 8.4 3.1 4.3 0.9 7.5 2.1 9.4 3.7 2 1.6 2.9 3.8 2.9 6.5 0 2.9-1.1 5.2-3.4 6.9 -2.3 1.7-5.3 2.5-9.1 2.5 -4.2 0-8.1-1.1-11.8-3.4l0.7-1.2c3.6 2.1 7.3 3.2 11.2 3.2 3.4 0 6.2-0.7 8.2-2.2 2-1.4 3-3.4 3-6 0-2.3-0.9-4.2-2.6-5.6 -1.8-1.4-4.6-2.4-8.7-3.2 -4.2-0.8-7.1-2-9-3.4 -1.8-1.5-2.7-3.5-2.7-6.1 0-2.7 1.1-4.8 3.2-6.4 2.1-1.6 5-2.4 8.6-2.4C219 13.5 222.9 14.4 226.6 16.3L226.6 16.3z" class="a"/><path d="M251.6 47.8l0.5 1.3c-1.9 0.7-3.9 1-6.1 1 -3.5 0-5.9-0.7-7.2-2.2 -1.3-1.4-2-4.1-2-8V16.9h-8.5v-1.4h8.5V2.7h1.4v12.9h14.6v1.4h-14.6v23c0 3.6 0.6 6 1.7 7.1 1.1 1.1 3.1 1.7 6.1 1.7C247.9 48.8 249.8 48.4 251.6 47.8L251.6 47.8z" class="a"/><path d="M198.2 6.7c-1.2 0-2.1-0.9-2.1-2.1 0-1.2 0.9-2.1 2.1-2.1 1.2 0 2.1 0.9 2.1 2.1C200.3 5.8 199.3 6.7 198.2 6.7L198.2 6.7zM198.2 1.5c-1.7 0-3.1 1.4-3.1 3.1 0 1.7 1.4 3.1 3.1 3.1 1.7 0 3.1-1.4 3.1-3.1C201.2 2.9 199.8 1.5 198.2 1.5L198.2 1.5z" class="a"/></svg>