<svg xmlns="http://www.w3.org/2000/svg" width="16" height="19" viewBox="0 0 16 19"><path d="M12.8 12.9L10.3 11.6C10.1 11.5 9.9 11.2 9.9 11v-0.9C10 10 10 9.9 10.1 9.8 10.4 9.3 10.7 8.8 10.9 8.3c0.4-0.2 0.6-0.5 0.6-1v-1c0-0.3-0.1-0.5-0.3-0.7V4.2c0-0.1 0.1-1-0.6-1.7 -0.5-0.7-1.4-1-2.6-1S5.9 1.8 5.4 2.4C4.7 3.2 4.8 4 4.8 4.2v1.4C4.6 5.8 4.5 6 4.5 6.3v1.1c0 0.3 0.1 0.6 0.4 0.8 0.2 1 0.8 1.7 0.9 1.9V11c0 0.3-0.1 0.5-0.4 0.6L3.1 12.9C2.3 13.3 1.8 14.1 1.8 15v0.9c0 1.3 4 1.6 6.1 1.6s6.1-0.3 6.1-1.6V15.1C14.1 14.2 13.6 13.3 12.8 12.9zM13.6 15.9c0 0.4-2 1.1-5.6 1.1 -3.6 0-5.6-0.7-5.6-1.1V15c0-0.7 0.4-1.3 1-1.6L5.8 12.1C6.2 11.9 6.4 11.5 6.4 11V9.9H6.3c0 0-0.7-0.8-0.9-1.9V7.9L5.3 7.8C5.1 7.7 5.1 7.5 5.1 7.4V6.3c0-0.1 0.1-0.3 0.2-0.4l0.1-0.1V4.2L5.3 4.1c0 0-0.1-0.7 0.5-1.3C6.2 2.3 7 2 8 2s1.8 0.3 2.2 0.8C10.7 3.4 10.6 4.1 10.6 4.1v1.7L10.7 5.9c0.2 0.1 0.2 0.3 0.2 0.4v1.1c0 0.2-0.2 0.4-0.4 0.5h-0.1V8C10.2 8.6 9.9 9.1 9.6 9.6 9.5 9.7 9.5 9.8 9.4 9.9H9.3V11c0 0.5 0.3 0.9 0.7 1.1l2.5 1.3c0.6 0.3 1 1 1 1.7V15.9H13.6z" fill="#808080"/></svg>
